<?xml version="1.0" encoding="utf-8"?>
<!-- Generator: Adobe Illustrator 21.1.0, SVG Export Plug-In . SVG Version: 6.00 Build 0)  -->
<svg version="1.1" id="Layer_1" xmlns="http://www.w3.org/2000/svg" xmlns:xlink="http://www.w3.org/1999/xlink" x="0px" y="0px"
	 viewBox="0 0 935 296.5" style="enable-background:new 0 0 935 296.5;" xml:space="preserve">
<style type="text/css">
	.st0{fill:#0FD186;}
	.st1{fill:#0089FF;}
	.st2{fill:#442E26;}
	.st3{fill:#D3E8F2;}
	.st4{fill:#683B11;}
	.st5{fill:#C6C6C5;}
	.st6{opacity:0.3;fill:#FFFFFF;}
	.st7{fill:#77B83E;}
	.st8{opacity:0.49;fill:#54882C;}
	.st9{fill:#AECA31;}
	.st10{fill:#FFFFFF;}
	.st11{fill:#FFD400;}
	.st12{fill:#FCC100;}
	.st13{fill:#221F1F;}
	.st14{fill:#F7CF34;}
	.st15{fill:#E8B628;}
	.st16{fill:#F9DC00;}
	.st17{fill:#65D34A;}
	.st18{opacity:0.5;fill:#319F48;}
	.st19{fill:#58AB46;}
	.st20{fill:#1C1D1E;}
	.st21{fill:#E1213A;}
	.st22{fill:#BB2227;}
	.st23{opacity:0.13;fill:#231F20;enable-background:new    ;}
	.st24{fill:#FDC60B;}
	.st25{fill:#EFB30C;}
	.st26{fill:#FFEF7E;}
	.st27{fill:#F2312B;}
	.st28{fill:#CE2E27;}
	.st29{fill:#FFEB31;}
	.st30{fill:#A51313;}
	.st31{opacity:9.000000e-02;fill:#231F20;enable-background:new    ;}
	.st32{fill:#3DA9F9;}
	.st33{fill:#A8DFF4;}
	.st34{fill:#74CBF7;}
	.st35{fill:#51B6F4;}
	.st36{fill:#B21F1B;}
	.st37{opacity:0.5;fill:#319F48;enable-background:new    ;}
	.st38{fill:#E01919;}
	.st39{fill:#CE1515;}
	.st40{fill:#E5E5E5;}
	.st41{fill:#EC524B;}
	.st42{fill:#F7F7F7;}
	.st43{opacity:0.25;fill:#E5E5E5;enable-background:new    ;}
</style>
<path class="st0" d="M183.4,3.3L46,25.9c-25,0-45.2,20.2-45.2,45.2v137.4c0,25,20.2,45.2,45.2,45.2h137.4c25,0,45.2-20.3,45.2-45.2
	v-160C228.6,23.5,208.4,3.3,183.4,3.3z M176,223.9c-16,11-35.2,16.5-57.8,16.5c-32.5,0-62.5-11.7-90-35.1l29.2-29.7
	c18.2,19.5,39.2,29.3,62.9,29.3c9.1,0,17.6-2,25.3-5.8c9.7-4.7,14.5-11.1,14.5-19.4c0-12.1-8.8-19.8-26.4-23.1l-24.3-4.6
	c-21.7-4.1-37.9-9.4-48.3-15.7c-15.6-9.6-23.5-23.4-23.5-41.3c0-20.3,8.3-36.6,24.8-48.7c14.6-11,32.5-16.5,53.7-16.5
	c27,0,53.4,9.3,79.3,27.7L171,87.6c-17.7-14.9-35.7-22.3-53.9-22.3c-8.8,0-16.8,2-24,5.8c-8.5,4.7-12.8,11.1-12.8,19.4
	c0,10.8,8.8,17.8,26.4,21.1l43.3,8.2c35.2,6.6,52.8,24.4,52.8,53.3C202.8,194.6,193.9,211.5,176,223.9z"/>
<path class="st1" d="M412.9,60.4v174.5h-38.6v-23.7h-0.6c-6.4,8.9-15,16-26.1,21.4c-11,5.3-22.1,8-33.1,8c-13,0-25-2.6-36-7.7
	s-20.5-12.3-28.4-21.7c-14.5-17.4-21.8-38.6-21.8-63.5c0-7.8,0.7-15.4,2.2-22.8s3.8-14.3,7.1-20.8c3.2-6.4,7.6-12.8,13.1-19.1
	c8.8-10.2,18.6-17.8,29.4-22.8c10.8-4.9,22.6-7.4,35.4-7.4c12,0,23,2.6,33.1,7.7S367.2,75.2,374,85V60.4H412.9L412.9,60.4
	L412.9,60.4z M373,147.4c0-7.4-1.2-14.2-3.7-20.5s-5.9-11.8-10.3-16.4s-9.7-8.2-16-10.8c-6.2-2.6-13-3.9-20.3-3.9
	c-15.2,0-27.8,5.1-37.5,15.1c-9.8,10.1-14.7,22.9-14.7,38.4c0,14.1,5.1,26.1,15.2,35.8s22.3,14.6,36.4,14.6c9.8,0,18.6-2.3,26.4-6.8
	c7.8-4.6,13.8-10.8,18-18.8C370.8,166.1,373,157.2,373,147.4z"/>
<path class="st1" d="M425.3,293.2V60.4h38.3v22.8h0.8c12.7-18.9,31.4-28.3,56-28.3c13.1,0,24.8,2.2,35,6.7s19.7,11.7,28.4,21.6
	c4.9,5,9.3,11.1,13.1,18.2s6.6,14.6,8.4,22.5s2.7,15.8,2.7,23.8c0,12.2-2.1,23.9-6.3,35.1c-4.5,11.1-10.6,21.1-18.6,29.8
	c-8,8.8-17.4,15.6-28.2,20.5s-22.4,7.4-34.7,7.4c-22.2,0-39.8-8.2-52.6-24.6h-0.5v77.2h-41.8L425.3,293.2L425.3,293.2z M515.8,95.7
	c-9.6,0-18.3,2.3-26.1,6.9s-13.9,10.9-18.4,18.9s-6.7,16.7-6.7,26.1c0,16.1,5.4,29,16.3,38.7c4.7,4.1,10.1,7.3,16,9.7
	s11.7,3.5,17.4,3.5c9.6,0,18.4-2.3,26.4-7c7.9-4.7,14.1-11,18.6-19s6.7-16.8,6.7-26.3c0-8.9-2.2-17.4-6.5-25.4
	c-4.4-8-10.4-14.4-18.1-19.1C533.7,98.1,525.2,95.7,515.8,95.7z"/>
<path class="st1" d="M712.6,54.8c12.7,0,24.6,2.4,35.8,7.3c11.1,4.9,20.9,11.6,29.3,20.2s14.9,18.5,19.5,29.7s6.8,23.2,6.8,35.9
	c0,12.6-2.4,24.5-7.1,35.7s-11.5,21.1-20.2,29.8c-8.8,8.7-18.8,15.4-30.1,20.1s-23.3,7-35.8,7c-16.5,0-31.9-4.2-46.1-12.5
	c-14.2-8.4-25.5-19.7-33.8-33.9c-8.4-14.2-12.5-29.6-12.5-46.1c0-13,2.4-25.2,7.3-36.5c4.9-11.3,11.6-21.2,20.2-29.7
	c8.6-8.5,18.6-15.1,30-19.8C687.2,57.2,699.4,54.8,712.6,54.8z M710.7,95.7c-6.2,0-12.7,1.4-19.3,4.3s-12.1,6.8-16.7,11.7
	c-9.6,9.7-14.4,21.8-14.4,36.3c0,9.1,2.2,17.7,6.7,25.7c4.5,8.1,10.5,14.4,18.3,19c7.7,4.6,16.2,6.9,25.4,6.9
	c9.7,0,18.5-2.3,26.2-6.8c7.8-4.6,13.9-10.8,18.3-18.8s6.6-16.7,6.6-26s-2.2-18-6.7-26.1s-10.7-14.5-18.6-19.1
	C728.7,98.1,720.1,95.7,710.7,95.7z"/>
<path class="st2" d="M513.7,9.2L513.7,9.2c-0.1,0-0.2-0.1-0.2-0.1C513.4,9.2,513.6,9.2,513.7,9.2z"/>
<path class="st2" d="M596.3,230c0,0,0,0.1-0.1,0.2c-0.2,0.1-0.3,0.3-0.5,0.4c-0.2,0.2-0.4,0.4-0.6,0.5l0.1-0.1
	c0.1-0.1,0.3-0.1,0.4,0c0.2-0.3,0.4-0.5,0.7-0.7c0.1-0.1,0.2-0.3,0.3-0.4l0,0c0,0,0,0-0.1,0C596.4,230,596.3,230,596.3,230z"/>
<path class="st3" d="M541.6,46.3c0.1-0.9,0.8-1.6,1.7-1.5c0.9,0,1.7,0.9,1.6,1.8c-0.1,0.9-1,1.6-1.9,1.5
	C542.2,47.9,541.5,47.1,541.6,46.3z"/>
<g>
	<g>
		<rect x="847.2" y="188.7" class="st4" width="17.2" height="32.1"/>
		<path class="st5" d="M847.2,220.8h13.9c0,0-15.9-6.6-5.3-32.1c-1.3-11.9-8.6,0-8.6,0V220.8z"/>
		<path class="st6" d="M853.2,203.4c-0.5,2.7-0.9,6.8,1.7,8.8c0.7-0.6-0.4-2.6,0.3-3c0.8-0.4,1,1.8,1.2,2.3c0.5,1.5,2,5.7,3.6,6.1
			c0.1-1.4-0.2-2.6-0.3-3.9c1,0.4,1.6,3.4,2.6,4.5c0.8-0.8,0.3-3.5,0.3-4.7c0-2,0-4,0-6c0-3.1,0.6-7.9-1.2-10.5
			c-1.4,1.7-0.3,5.5-1.5,7.6c-1.7-1.5,0.2-6.2-1.9-7.6c-1.7-1.2-1.3,4.3-1.5,5.6c-1.1-1.2-0.3-3.4-1.9-4.3c-0.7,0.5-0.4,1.5-0.7,2.3
			L853.2,203.4z"/>
		<g>
			<g>
				<path class="st7" d="M924.7,190.9c0,0-21.7,9.7-70.3,9.7c-48.7,0-70.3-9.7-70.3-9.7s15-8.4,33.1-28.7
					c22.9-25.6,37.2-69.7,37.2-69.7s17.6,46.7,39.2,72.3C910.5,184.8,924.7,190.9,924.7,190.9z"/>
				<path class="st8" d="M805.3,188.5c0,0,10.6-7.1,26.7-29c1.7-2.3,3.4-4.8,4.9-7.4c-3.4-0.6-6.8-1.1-10-2.4h-0.2
					c-3,4.4-6.2,8.7-9.6,12.5C799,182.5,784,190.9,784,190.9s21.7,9.7,70.3,9.7C828.6,198.3,805.3,188.5,805.3,188.5z"/>
				<polygon class="st8" points="827.9,180.1 840.9,145.5 845.7,146.8 				"/>
				<polygon class="st8" points="848.1,173.9 848.5,146.3 850.1,151.8 				"/>
				<polygon class="st8" points="881.2,182.7 870.2,145.6 874.8,147.8 				"/>
				<polygon class="st8" points="867.4,172.6 856.3,135.5 861,137.7 				"/>
				<polygon class="st8" points="856.3,188.4 852.7,146.4 857.3,148.7 				"/>
				<path class="st9" d="M924.7,190.9c0,0-14.2-6.1-31.1-26.1c-3.5-4.1-6.9-8.8-10.1-13.7l-6.6,1.8c3.3,5.5,5.8,8.9,9.5,13.3
					c16.9,20,28,23.5,28,23.5s-28.5,9.4-60,11C903,200.6,924.7,190.9,924.7,190.9z"/>
				<path class="st7" d="M900.6,147.6c0,0-14.3,7.5-46.3,7.5c-32,0-46.3-7.5-46.3-7.5s9.9-6.5,21.8-22.2
					c15.1-19.8,24.5-53.9,24.5-53.9s11.5,36,25.8,55.8C891.3,142.9,900.6,147.6,900.6,147.6z"/>
				<path class="st8" d="M817.8,146.4c0,0,9.4-7.2,20.1-23.7c2.5-3.8,4.7-8.1,6.8-12.6c-1.4-0.4-2.7-0.9-4-1.5
					c-0.2-0.1-0.4-0.1-0.5-0.2c-3,6.1-6.5,12-10.3,17c-11.9,15.7-21.8,22.2-21.8,22.2s14.3,7.5,46.3,7.5
					C837,153.3,817.8,146.4,817.8,146.4z"/>
				<path class="st9" d="M880.1,127.4c-3.4-4.8-6.7-10.5-9.7-16.5l-4.3,0.6c2.7,5.2,5.7,10.3,8.8,14.5
					c11.1,15.5,19.9,20.9,19.9,20.9s-20,7-40.4,8.1c32,0,46.3-7.5,46.3-7.5S891.3,142.9,880.1,127.4z"/>
				<polygon class="st8" points="834.4,141.8 847.4,107.2 852.2,108.4 				"/>
				<polygon class="st8" points="853.3,133.1 853.7,105.6 855.4,111 				"/>
				<polygon class="st8" points="870.7,145.5 859.7,108.4 864.3,110.7 				"/>
				<path class="st7" d="M889.3,106.3c0,0-10.8,5.7-35,5.7c-24.2,0-35-5.7-35-5.7s7.5-4.9,16.5-16.8c11.4-15,18.5-40.7,18.5-40.7
					s8.7,27.2,19.5,42.2C882.3,102.8,889.3,106.3,889.3,106.3z"/>
				<path class="st8" d="M831.3,103.8c0,0,7.8-5.3,14.1-18.8c8-17.2,9-36.1,9-36.1s-7.1,25.7-18.5,40.7c-9,11.9-16.5,16.8-16.5,16.8
					s10.8,5.7,35,5.7C844,110.9,831.3,103.8,831.3,103.8z"/>
				<path class="st9" d="M873.8,91.3c-10.8-15-19.5-42.2-19.5-42.2s3.9,24.4,13.4,39.2c7.8,12.1,13.1,17.1,13.1,17.1
					s-8.1,4.7-19.5,6.7c19.3-0.9,27.9-5.5,27.9-5.5S882.3,103,873.8,91.3z"/>
			</g>
			<g>
				<g>
					<path class="st10" d="M866.1,124.7c0,0,2.4-1.3,2.7-2.3c0.3-1,0-3.6,0-3.6s1,2.2,2.3,2.7c1.3,0.5,3.6,0,3.6,0s-2.4,1-2.7,2.3
						c-0.3,1.4,0.1,3.6,0.1,3.6s-1.1-2.3-2.3-2.7C868.5,124.2,866.1,124.7,866.1,124.7z"/>
					<path class="st10" d="M856.1,127.4c0,0,1.3,0,1.7-0.4c0.4-0.4,0.8-1.5,0.8-1.5s-0.1,1.2,0.4,1.7c0.5,0.5,1.5,0.8,1.5,0.8
						s-1.3-0.1-1.7,0.4c-0.4,0.5-0.8,1.5-0.8,1.5s0-1.2-0.4-1.7C857.2,127.7,856.1,127.4,856.1,127.4z"/>
					<path class="st10" d="M869.5,106.5c0,0,0.3-0.6,0.2-0.9c-0.1-0.2-0.5-0.7-0.5-0.7s0.5,0.3,0.9,0.2c0.3-0.1,0.7-0.5,0.7-0.5
						s-0.3,0.6-0.2,0.9c0.1,0.3,0.5,0.7,0.5,0.7s-0.6-0.3-0.9-0.2C869.9,106.1,869.5,106.5,869.5,106.5z"/>
					<path class="st10" d="M857,116.7c0,0,0.3-0.2,0.4-0.3c0-0.1,0-0.5,0-0.5s0.1,0.3,0.3,0.4c0.2,0.1,0.5,0,0.5,0s-0.3,0.1-0.4,0.3
						c0,0.2,0,0.5,0,0.5s-0.2-0.3-0.3-0.4C857.3,116.6,857,116.7,857,116.7z"/>
					<path class="st10" d="M875.7,149.3c0,0,1.3,0,1.7-0.4c0.4-0.4,0.8-1.5,0.8-1.5s-0.1,1.2,0.4,1.7c0.5,0.5,1.5,0.8,1.5,0.8
						s-1.2-0.1-1.7,0.4c-0.4,0.5-0.8,1.5-0.8,1.5s0-1.2-0.4-1.7C876.8,149.6,875.7,149.3,875.7,149.3z"/>
					<path class="st10" d="M886.4,141.8c0,0,0.3-0.6,0.2-0.9c-0.1-0.2-0.5-0.7-0.5-0.7s0.5,0.3,0.9,0.2c0.3-0.1,0.7-0.5,0.7-0.5
						s-0.3,0.5-0.2,0.9c0.1,0.3,0.5,0.7,0.5,0.7s-0.6-0.3-0.9-0.2C886.8,141.3,886.4,141.8,886.4,141.8z"/>
					<path class="st10" d="M863.9,135.6c0,0,0.3-0.6,0.2-0.9c-0.1-0.2-0.5-0.7-0.5-0.7s0.5,0.3,0.9,0.2c0.3-0.1,0.7-0.5,0.7-0.5
						s-0.3,0.6-0.2,0.9c0.1,0.3,0.5,0.7,0.5,0.7s-0.6-0.3-0.9-0.2C864.3,135.2,863.9,135.6,863.9,135.6z"/>
					<path class="st10" d="M870.7,140.4c0,0,0.3-0.2,0.4-0.3c0-0.1,0-0.5,0-0.5s0.1,0.3,0.3,0.4c0.2,0.1,0.5,0,0.5,0
						s-0.3,0.1-0.4,0.3c0,0.2,0,0.5,0,0.5s-0.2-0.3-0.3-0.4C871.1,140.3,870.7,140.4,870.7,140.4z"/>
					<path class="st10" d="M877.2,116.2c0,0,0.4,0.1,0.5,0.1c0.1-0.1,0.4-0.3,0.4-0.3s-0.1,0.3-0.1,0.5c0.1,0.2,0.3,0.4,0.3,0.4
						s-0.3-0.2-0.5-0.1c-0.2,0.1-0.4,0.3-0.4,0.3s0.1-0.3,0.1-0.5S877.2,116.2,877.2,116.2z"/>
					<path class="st10" d="M879.3,133.8c0,0,0.4,0.1,0.5,0.1c0.1-0.1,0.4-0.3,0.4-0.3s-0.1,0.3-0.1,0.5c0.1,0.2,0.3,0.4,0.3,0.4
						s-0.3-0.2-0.5-0.1c-0.2,0.1-0.4,0.3-0.4,0.3s0.1-0.3,0.1-0.5C879.6,134,879.3,133.8,879.3,133.8z"/>
				</g>
				<g>
					<path class="st10" d="M837.2,182.7c0,0,0.5-2.7,0-3.6c-0.6-0.9-2.8-2.3-2.8-2.3s2.3,0.7,3.6,0c1.2-0.7,2.3-2.8,2.3-2.8
						s-0.8,2.5,0,3.6c0.9,1.1,2.8,2.3,2.8,2.3s-2.5-0.6-3.6,0C838.4,180.6,837.2,182.7,837.2,182.7z"/>
					<path class="st10" d="M884.5,166.4c0,0,0.5-2.7,0-3.6c-0.6-0.9-2.8-2.3-2.8-2.3s2.3,0.7,3.6,0c1.2-0.7,2.3-2.8,2.3-2.8
						s-0.8,2.5,0,3.6c0.9,1.1,2.8,2.3,2.8,2.3s-2.5-0.6-3.6,0C885.7,164.3,884.5,166.4,884.5,166.4z"/>
					<path class="st10" d="M786.4,193.8c0,0,0.8-1,0.8-1.5c0-0.5-0.7-1.6-0.7-1.6s0.8,0.8,1.5,0.8c0.7,0,1.6-0.7,1.6-0.7
						s-0.9,0.9-0.8,1.5c0.1,0.6,0.7,1.6,0.7,1.6s-0.9-0.8-1.5-0.8C787.4,193.1,786.4,193.8,786.4,193.8z"/>
					<path class="st10" d="M893.9,192.2c0,0,0.8-1,0.8-1.5c0-0.5-0.7-1.6-0.7-1.6s0.8,0.8,1.5,0.8c0.7,0,1.6-0.7,1.6-0.7
						s-0.9,0.9-0.8,1.5c0.1,0.7,0.7,1.6,0.7,1.6s-0.9-0.8-1.5-0.8C894.9,191.5,893.9,192.2,893.9,192.2z"/>
					<path class="st10" d="M808.2,167.1c0,0-0.3-0.6-0.5-0.7c-0.2-0.1-0.9,0-0.9,0s0.6-0.2,0.7-0.5c0.1-0.3,0-0.9,0-0.9
						s0.2,0.6,0.5,0.7c0.3,0.1,0.9,0,0.9,0s-0.6,0.2-0.7,0.5C808.1,166.5,808.2,167.1,808.2,167.1z"/>
					<path class="st10" d="M802,179.9c0,0,0.1-0.4,0-0.5c-0.1-0.1-0.4-0.3-0.4-0.3s0.3,0.1,0.5,0c0.2-0.1,0.3-0.4,0.3-0.4
						s-0.1,0.3,0,0.5c0.1,0.2,0.4,0.3,0.4,0.3s-0.3-0.1-0.5,0C802.2,179.6,802,179.9,802,179.9z"/>
					<path class="st10" d="M841.2,202c0,0,0.8-1,0.8-1.5c0-0.5-0.7-1.6-0.7-1.6s0.8,0.8,1.5,0.8c0.7,0,1.6-0.7,1.6-0.7
						s-0.9,0.9-0.8,1.5c0.1,0.7,0.7,1.6,0.7,1.6s-0.9-0.8-1.5-0.8C842.2,201.4,841.2,202,841.2,202z"/>
					<path class="st10" d="M861.1,168.2c0,0-0.3-0.6-0.5-0.7c-0.2-0.1-0.9,0-0.9,0s0.6-0.2,0.7-0.5c0.1-0.3,0-0.9,0-0.9
						s0.2,0.6,0.5,0.7c0.3,0.1,0.9,0,0.9,0s-0.6,0.2-0.7,0.5C861,167.6,861.1,168.2,861.1,168.2z"/>
					<path class="st10" d="M870.4,191.1c0,0-0.3-0.6-0.5-0.7c-0.2-0.1-0.9,0-0.9,0s0.6-0.2,0.7-0.5c0.1-0.3,0-0.9,0-0.9
						s0.2,0.6,0.5,0.7c0.3,0.1,0.9,0,0.9,0s-0.6,0.2-0.7,0.5C870.3,190.5,870.4,191.1,870.4,191.1z"/>
					<path class="st10" d="M902,179.5c0,0-0.3-0.6-0.5-0.7c-0.2-0.1-0.9,0-0.9,0s0.6-0.2,0.7-0.5c0.1-0.3,0-0.9,0-0.9
						s0.2,0.6,0.5,0.7c0.3,0.1,0.9,0,0.9,0s-0.6,0.2-0.7,0.5C901.9,178.9,902,179.5,902,179.5z"/>
					<path class="st10" d="M818.9,197.3c0,0-0.3-0.6-0.5-0.7c-0.2-0.1-0.9,0-0.9,0s0.6-0.2,0.7-0.5c0.1-0.3,0-0.9,0-0.9
						s0.2,0.6,0.5,0.7c0.3,0.1,0.9,0,0.9,0s-0.6,0.3-0.7,0.5C818.8,196.7,818.9,197.3,818.9,197.3z"/>
					<path class="st10" d="M853.5,190.7c0,0,0.1-0.4,0-0.5c-0.1-0.1-0.4-0.3-0.4-0.3s0.3,0.1,0.5,0c0.2-0.1,0.3-0.4,0.3-0.4
						s-0.1,0.3,0,0.5c0.1,0.1,0.4,0.3,0.4,0.3s-0.3-0.1-0.5,0C853.7,190.4,853.5,190.7,853.5,190.7z"/>
					<path class="st10" d="M911.6,189.7c0,0,0.1-0.4,0-0.5c-0.1-0.1-0.4-0.3-0.4-0.3s0.3,0.1,0.5,0c0.2-0.1,0.3-0.4,0.3-0.4
						s-0.1,0.4,0,0.5c0.1,0.1,0.4,0.3,0.4,0.3s-0.4-0.1-0.5,0C911.8,189.4,911.6,189.7,911.6,189.7z"/>
					<path class="st10" d="M827,168.9c0,0,0.3-0.2,0.4-0.3c0-0.1,0-0.5,0-0.5s0.2,0.3,0.3,0.4c0.2,0.1,0.5,0,0.5,0s-0.3,0.1-0.4,0.3
						c0,0.2,0,0.5,0,0.5s-0.2-0.3-0.3-0.4C827.3,168.8,827,168.9,827,168.9z"/>
					<path class="st10" d="M840.1,159.8c0,0,0.3-0.2,0.4-0.3c0-0.1,0-0.5,0-0.5s0.2,0.3,0.3,0.4c0.2,0.1,0.5,0,0.5,0
						s-0.3,0.1-0.4,0.3c0,0.2,0,0.5,0,0.5s-0.2-0.3-0.3-0.4C840.4,159.7,840.1,159.8,840.1,159.8z"/>
				</g>
				<g>
					<path class="st10" d="M855.5,79.9c0,0-2.2-1.6-2.4-2.6c-0.2-1,0.5-3.6,0.5-3.6s-1.3,2.1-2.6,2.4c-1.4,0.3-3.5-0.5-3.5-0.5
						s2.3,1.3,2.4,2.6c0.1,1.4-0.5,3.5-0.5,3.5s1.4-2.2,2.6-2.4C853.2,79.2,855.5,79.9,855.5,79.9z"/>
					<path class="st10" d="M865.2,83.8c0,0-1.3-0.2-1.6-0.6c-0.3-0.4-0.6-1.6-0.6-1.6s-0.1,1.2-0.6,1.6c-0.5,0.4-1.6,0.6-1.6,0.6
						s1.3,0,1.6,0.6c0.4,0.6,0.6,1.6,0.6,1.6s0.1-1.2,0.6-1.6C864,84,865.2,83.8,865.2,83.8z"/>
					<path class="st10" d="M854.3,61.5c0,0-0.2-0.7-0.1-0.9c0.1-0.2,0.6-0.6,0.6-0.6s-0.6,0.2-0.9,0.1c-0.3-0.1-0.6-0.6-0.6-0.6
						s0.3,0.6,0.1,0.9c-0.2,0.3-0.6,0.6-0.6,0.6s0.6-0.2,0.9-0.1C853.9,61,854.3,61.5,854.3,61.5z"/>
					<path class="st10" d="M865.5,73.1c0,0-0.3-0.2-0.3-0.4c0-0.1,0.1-0.5,0.1-0.5s-0.2,0.3-0.4,0.3c-0.2,0-0.5-0.1-0.5-0.1
						s0.3,0.2,0.3,0.4c0,0.2-0.1,0.5-0.1,0.5s0.2-0.3,0.4-0.3C865.2,73,865.5,73.1,865.5,73.1z"/>
					<path class="st10" d="M843.1,103.2c0,0-1.3-0.2-1.6-0.6c-0.3-0.4-0.6-1.6-0.6-1.6s-0.1,1.2-0.6,1.6c-0.5,0.4-1.6,0.6-1.6,0.6
						s1.3,0,1.6,0.6c0.4,0.6,0.6,1.6,0.6,1.6s0.1-1.2,0.6-1.6C842,103.4,843.1,103.2,843.1,103.2z"/>
					<path class="st10" d="M833.4,94.5c0,0-0.2-0.6-0.1-0.9c0.1-0.2,0.6-0.6,0.6-0.6s-0.6,0.2-0.9,0.1c-0.3-0.1-0.6-0.6-0.6-0.6
						s0.3,0.6,0.1,0.9c-0.2,0.3-0.6,0.6-0.6,0.6s0.6-0.2,0.9-0.1C833,94,833.4,94.5,833.4,94.5z"/>
					<path class="st10" d="M856.4,91.1c0,0-0.2-0.6-0.1-0.9c0.1-0.2,0.6-0.6,0.6-0.6s-0.6,0.2-0.9,0.1c-0.3-0.1-0.6-0.6-0.6-0.6
						s0.3,0.6,0.1,0.9c-0.2,0.3-0.6,0.6-0.6,0.6s0.6-0.2,0.9-0.1C856.1,90.6,856.4,91.1,856.4,91.1z"/>
					<path class="st10" d="M849.1,95c0,0-0.3-0.2-0.3-0.4c0-0.1,0.1-0.5,0.1-0.5s-0.2,0.3-0.4,0.3c-0.2,0-0.5-0.1-0.5-0.1
						s0.3,0.2,0.3,0.4c0,0.2-0.1,0.5-0.1,0.5s0.2-0.3,0.4-0.3C848.8,94.9,849.1,95,849.1,95z"/>
					<path class="st10" d="M845.4,70.3c0,0-0.4,0.1-0.5,0c-0.1-0.1-0.3-0.4-0.3-0.4s0.1,0.3,0,0.5c-0.1,0.2-0.4,0.3-0.4,0.3
						s0.3-0.1,0.5,0c0.2,0.1,0.3,0.4,0.3,0.4s-0.1-0.3,0-0.5C845.1,70.4,845.4,70.3,845.4,70.3z"/>
					<path class="st10" d="M841.3,87.4c0,0-0.4,0.1-0.5,0c-0.1-0.1-0.3-0.4-0.3-0.4s0.1,0.3,0,0.5c-0.1,0.2-0.4,0.3-0.4,0.3
						s0.4-0.1,0.5,0c0.2,0.1,0.3,0.4,0.3,0.4s-0.1-0.3,0-0.5C841,87.6,841.3,87.4,841.3,87.4z"/>
				</g>
				<g>
					<path class="st10" d="M822.2,139.8c0,0-1.4-2.4-1.1-3.4c0.3-1,1.9-3,1.9-3s-2,1.4-3.4,1.1c-1.4-0.3-3-1.9-3-1.9
						s1.6,2.1,1.1,3.4c-0.5,1.3-1.9,3-1.9,3s2.2-1.4,3.4-1.1C820.4,138.2,822.2,139.8,822.2,139.8z"/>
					<path class="st10" d="M843,148.9c0,0-1.1-0.7-1.2-1.2c-0.1-0.5,0.1-1.7,0.1-1.7s-0.5,1-1.2,1.2c-0.7,0.2-1.7-0.1-1.7-0.1
						s1.1,0.5,1.2,1.2c0.1,0.7-0.1,1.7-0.1,1.7s0.6-1.1,1.2-1.2C841.8,148.6,843,148.9,843,148.9z"/>
					<path class="st10" d="M842.1,119.3c0,0,0.1-0.7,0.3-0.8c0.2-0.2,0.8-0.3,0.8-0.3s-0.6,0-0.8-0.3c-0.2-0.3-0.3-0.8-0.3-0.8
						s0,0.6-0.3,0.8c-0.3,0.2-0.8,0.3-0.8,0.3s0.6,0,0.8,0.3C842,118.8,842.1,119.3,842.1,119.3z"/>
					<path class="st10" d="M852.1,129.5c0,0-0.2-0.3-0.2-0.5c0-0.1,0.3-0.4,0.3-0.4s-0.3,0.2-0.5,0.2c-0.2,0-0.4-0.3-0.4-0.3
						s0.2,0.3,0.2,0.5c-0.1,0.2-0.3,0.4-0.3,0.4s0.3-0.2,0.5-0.2C851.9,129.3,852.1,129.5,852.1,129.5z"/>
					<path class="st10" d="M822.1,163c0,0-1.1-0.7-1.2-1.2c-0.1-0.5,0.1-1.7,0.1-1.7s-0.5,1-1.2,1.2c-0.6,0.2-1.7-0.1-1.7-0.1
						s1.1,0.5,1.2,1.2c0.1,0.7-0.1,1.7-0.1,1.7s0.6-1.1,1.2-1.2C821,162.7,822.1,163,822.1,163z"/>
					<path class="st10" d="M817.5,185.7c0,0,0.1-0.7,0.3-0.8c0.2-0.2,0.8-0.3,0.8-0.3s-0.6,0-0.8-0.3c-0.2-0.3-0.3-0.8-0.3-0.8
						s0,0.6-0.3,0.8c-0.3,0.2-0.8,0.3-0.8,0.3s0.6,0,0.8,0.3C817.3,185.1,817.5,185.7,817.5,185.7z"/>
					<path class="st10" d="M829.7,147.8c0,0,0.1-0.7,0.3-0.8c0.2-0.2,0.8-0.3,0.8-0.3s-0.6,0-0.8-0.3c-0.2-0.3-0.3-0.8-0.3-0.8
						s0,0.6-0.3,0.8c-0.3,0.2-0.8,0.3-0.8,0.3s0.6,0,0.8,0.3C829.6,147.2,829.7,147.8,829.7,147.8z"/>
					<path class="st10" d="M810.1,149.6c0,0-0.2-0.3-0.2-0.5c0-0.1,0.3-0.4,0.3-0.4s-0.3,0.2-0.5,0.2c-0.2,0-0.4-0.3-0.4-0.3
						s0.2,0.3,0.2,0.5c-0.1,0.2-0.3,0.4-0.3,0.4s0.3-0.2,0.5-0.2C809.8,149.4,810.1,149.6,810.1,149.6z"/>
					<path class="st10" d="M824.9,127.1c0,0-0.4-0.1-0.5-0.2c-0.1-0.1-0.1-0.5-0.1-0.5s0,0.3-0.2,0.5c-0.2,0.1-0.5,0.1-0.5,0.1
						s0.4,0,0.5,0.2c0.1,0.2,0.1,0.5,0.1,0.5s0.1-0.4,0.2-0.5C824.6,127.1,824.9,127.1,824.9,127.1z"/>
					<path class="st10" d="M810.8,128.4c0,0-0.4-0.1-0.5-0.2c-0.1-0.1-0.1-0.5-0.1-0.5s0,0.3-0.2,0.5c-0.2,0.1-0.5,0.1-0.5,0.1
						s0.4,0,0.5,0.2c0.1,0.2,0.1,0.5,0.1,0.5s0.1-0.4,0.2-0.5C810.5,128.4,810.8,128.4,810.8,128.4z"/>
				</g>
			</g>
		</g>
		<g>
			<polygon class="st11" points="854.3,33.3 859.4,43.5 870.7,45.2 862.5,53.2 864.5,64.5 854.3,59.1 844.2,64.5 846.1,53.2 
				837.9,45.2 849.3,43.5 			"/>
			<polygon class="st12" points="854.3,33.3 859.4,43.5 854.3,50.3 870.7,45.2 862.5,53.2 854.3,50.3 864.5,64.5 854.3,59.1 
				854.3,50.3 844.2,64.5 846.1,53.2 854.3,50.3 837.9,45.2 849.3,43.5 854.3,50.3 			"/>
		</g>
	</g>
	<g id="XMLID_220_">
		<g id="XMLID_262_">
			<path id="XMLID_267_" class="st13" d="M844.8,130.7c0-0.1,0-0.3,0.1-0.4l1.7-1.8c0.2-0.2,0.4-0.2,0.6,0c0.2,0.2,0.2,0.4,0,0.6
				l-1.7,1.8c-0.2,0.2-0.4,0.2-0.6,0C844.9,130.8,844.8,130.7,844.8,130.7L844.8,130.7z"/>
			<g id="XMLID_263_">
				<path id="XMLID_266_" class="st14" d="M846.8,132c-0.7,1-2,1.3-3,0.6c-0.9-0.7-1.2-2-0.5-3c0.7-1,2-1.3,3-0.6
					C847.2,129.7,847.4,131,846.8,132L846.8,132z"/>
				<path class="st15" d="M843,131.3c0.1,0.5,0.4,1,0.8,1.3c0.9,0.7,2.3,0.4,3-0.6c0.3-0.4,0.4-0.9,0.4-1.4
					C846.8,131.9,844.3,133.3,843,131.3z"/>
				<path id="XMLID_265_" class="st16" d="M846.5,132.8C846.5,132.8,846.5,132.8,846.5,132.8C846.5,132.8,846.5,132.8,846.5,132.8
					L846.5,132.8z"/>
				<path id="XMLID_264_" class="st10" d="M844.6,128.9c-0.3,0-0.7,0.3-0.9,0.6c0,0.1,0,0.2,0.1,0.2c0.1,0.1,0.3,0,0.3-0.1
					c0.1-0.1,0.2-0.3,0.4-0.4C845,129,844.7,128.9,844.6,128.9z"/>
			</g>
		</g>
		<g id="XMLID_257_">
			<path id="XMLID_261_" class="st13" d="M853.1,134.2c-0.1-0.1-0.2-0.2-0.2-0.4l0.3-1.8c0-0.2,0.3-0.4,0.5-0.4
				c0.2,0,0.4,0.2,0.4,0.5l-0.3,1.8c0,0.2-0.3,0.4-0.5,0.4C853.2,134.3,853.2,134.3,853.1,134.2L853.1,134.2z"/>
			<g id="XMLID_258_">
				<path id="XMLID_260_" class="st17" d="M854.7,135.6c-0.4,1.1-1.6,1.7-2.6,1.4c-1.1-0.3-1.6-1.5-1.3-2.6c0.4-1.1,1.6-1.7,2.6-1.4
					C854.5,133.3,855.1,134.4,854.7,135.6L854.7,135.6z"/>
				<path class="st18" d="M850.7,135.4c0.1,0.7,0.6,1.4,1.3,1.6c1.1,0.3,2.3-0.3,2.6-1.4c0.2-0.6,0.1-1.3-0.2-1.8
					C854.8,135.6,852.4,137.8,850.7,135.4z"/>
				<path id="XMLID_259_" class="st10" d="M852.9,133.1c-0.2-0.1-0.5-0.1-0.9,0.2c-0.2,0.1-0.3,0.4-0.1,0.4c0.1,0,0.7-0.3,0.8-0.4
					c0,0,0,0,0,0c0,0,0,0,0.1,0C852.9,133.3,853,133.2,852.9,133.1z"/>
			</g>
		</g>
		<g id="XMLID_247_">
			<path id="XMLID_256_" class="st13" d="M822.5,111.6c-0.1-0.1-0.1-0.3,0-0.4l1-1.5c0.1-0.2,0.4-0.3,0.6-0.2
				c0.2,0.1,0.3,0.4,0.1,0.6l-0.9,1.5c-0.1,0.2-0.4,0.3-0.6,0.2C822.6,111.7,822.5,111.7,822.5,111.6L822.5,111.6z"/>
			<g id="XMLID_248_">
				<path id="XMLID_255_" class="st19" d="M828.8,118C828.8,118,828.7,118,828.8,118C828.7,118,828.8,118,828.8,118L828.8,118z"/>
				<path id="XMLID_254_" class="st13" d="M822.5,111.6c-0.1-0.1-0.1-0.3,0-0.4l1-1.5c0.1-0.2,0.4-0.3,0.6-0.2
					c0.2,0.1,0.3,0.4,0.1,0.6l-0.9,1.5c-0.1,0.2-0.4,0.3-0.6,0.2C822.6,111.7,822.5,111.7,822.5,111.6L822.5,111.6z"/>
				<path id="XMLID_253_" class="st13" d="M829,117.9c-0.1-0.1-0.1-0.3,0-0.4l1-1.5c0.1-0.2,0.4-0.3,0.6-0.2
					c0.2,0.1,0.3,0.4,0.1,0.6l-0.9,1.5c-0.1,0.2-0.4,0.3-0.6,0.2C829.1,118,829.1,117.9,829,117.9L829,117.9z"/>
				<path id="XMLID_252_" class="st14" d="M823.9,113.3c-0.8,0.9-2.1,1-3,0.2c-0.9-0.7-0.9-2-0.1-2.9c0.8-0.9,2.1-1,3-0.3
					C824.7,111.1,824.7,112.4,823.9,113.3L823.9,113.3z"/>
				<path class="st15" d="M824.2,110.8c0.2,1-0.5,2.8-2.9,2.9c0.8,0.5,2,0.3,2.7-0.4C824.6,112.6,824.7,111.6,824.2,110.8z"/>
				<path id="XMLID_251_" class="st10" d="M823.3,110.3c-0.1-0.2-0.5-0.2-0.9-0.2c-0.2,0-0.3,0.3-0.1,0.3c0.1,0,0.7,0.1,0.8,0.1
					c0,0,0,0,0,0c0,0,0,0,0.1,0C823.2,110.5,823.4,110.4,823.3,110.3z"/>
				<path id="XMLID_250_" class="st17" d="M830.7,118.8c-0.4,1.1-1.6,1.7-2.6,1.4c-1.1-0.3-1.6-1.5-1.3-2.6c0.4-1.1,1.6-1.7,2.6-1.4
					C830.5,116.5,831.1,117.7,830.7,118.8L830.7,118.8z"/>
				<path class="st18" d="M826.7,118.4c0.1,0.8,0.6,1.5,1.4,1.7c0.8,0.2,1.7,0,2.2-0.6C829.9,119.6,828.3,120.3,826.7,118.4z"/>
				<path id="XMLID_249_" class="st10" d="M829,116.3c-0.2-0.1-0.5,0-0.9,0.2c-0.2,0.1-0.2,0.4,0,0.3c0.1,0,0.7-0.2,0.7-0.2
					c0,0,0,0,0,0c0,0,0,0,0.1,0C829,116.5,829.1,116.4,829,116.3z"/>
			</g>
		</g>
		<g id="XMLID_245_">
			<path class="st20" d="M822.3,107.4c2.1,2.4,4.3,4.6,6.6,6.7c2.3,2.1,4.7,4.2,7.2,6.1c5,3.8,10.2,7.3,15.8,10.1
				c5.6,2.8,11.6,4.9,17.7,6c3.1,0.5,6.2,0.7,9.4,0.7c3.1-0.1,6.3-0.5,9.3-1.1c-3,0.8-6.2,1.3-9.3,1.5c-3.2,0.1-6.3-0.1-9.5-0.5
				c-6.3-1-12.3-3.1-18-5.9c-5.6-2.8-10.9-6.3-15.8-10.3C830.9,116.6,826.3,112.2,822.3,107.4z"/>
		</g>
		<g id="XMLID_230_">
			<path id="XMLID_233_" class="st13" d="M860.2,136.1c-0.1-0.1-0.2-0.2-0.2-0.4l0.1-0.8c0-0.2,0.3-0.4,0.5-0.4
				c0.2,0,0.4,0.2,0.4,0.5l-0.1,0.8c0,0.2-0.3,0.4-0.5,0.4C860.3,136.2,860.2,136.2,860.2,136.1L860.2,136.1z"/>
			<path id="XMLID_232_" class="st21" d="M861.5,138.8c-0.7,1-2,1.2-2.9,0.6c-0.9-0.6-1.1-2-0.5-2.9c0.7-1,2-1.2,2.9-0.6
				C861.9,136.5,862.1,137.8,861.5,138.8L861.5,138.8z"/>
			<path class="st22" d="M861.7,136.7c-0.3,1.5-1.6,2.4-3.4,1.7c-0.2-0.2-0.4-0.3-0.5-0.4c0.1,0.6,0.4,1.1,0.8,1.4
				c0.9,0.6,2.2,0.4,2.9-0.6C861.9,138.1,862,137.3,861.7,136.7z"/>
			<path id="XMLID_231_" class="st10" d="M859.2,136.1c0.1-0.1,0.1-0.3-0.3-0.1c-0.2,0.1-0.8,0.8-0.8,1c0,0.1,0.1,0.1,0.1,0
				C858.4,136.8,858.4,136.7,859.2,136.1z"/>
		</g>
		<g id="XMLID_226_">
			<path id="XMLID_229_" class="st13" d="M876.3,139.4c-0.1-0.1-0.2-0.2-0.2-0.4l0.1-0.8c0-0.2,0.3-0.4,0.5-0.4
				c0.2,0,0.4,0.2,0.4,0.5l-0.1,0.8c0,0.2-0.3,0.4-0.5,0.4C876.4,139.4,876.4,139.4,876.3,139.4L876.3,139.4z"/>
			<path id="XMLID_228_" class="st21" d="M877.9,141.5c-0.7,1-2,1.2-2.9,0.6c-0.9-0.6-1.1-2-0.5-2.9c0.7-1,2-1.2,2.9-0.6
				C878.3,139.2,878.6,140.5,877.9,141.5L877.9,141.5z"/>
			<path class="st22" d="M877.8,140.8c-1.1,0.8-2.6,0.9-3.6,0c0.1,0.5,0.4,0.9,0.8,1.2c0.9,0.6,2.2,0.4,2.9-0.6
				c0.3-0.4,0.4-0.9,0.4-1.4C878.1,140.4,878,140.6,877.8,140.8z"/>
			<path id="XMLID_227_" class="st10" d="M875.6,138.8c0.1-0.1-0.1-0.2-0.2-0.1c-0.2,0.2-0.4,0.2-0.6,0.4c-0.1,0.1-0.3,0.3-0.3,0.5
				c0,0.1,0.2,0.1,0.3,0.1c0.1-0.1,0.2-0.3,0.3-0.5C875.3,139.1,875.5,139,875.6,138.8z"/>
		</g>
		<g id="XMLID_221_">
			<path id="XMLID_225_" class="st13" d="M837.7,123.7c-0.1-0.1-0.2-0.2-0.2-0.4l0.1-0.8c0-0.2,0.3-0.4,0.5-0.4
				c0.2,0,0.4,0.2,0.4,0.5l-0.1,0.8c0,0.2-0.3,0.4-0.5,0.4C837.8,123.8,837.7,123.8,837.7,123.7L837.7,123.7z"/>
			<path id="XMLID_224_" class="st21" d="M839,126.3c-0.7,1-2,1.2-2.9,0.6c-0.9-0.6-1.1-2-0.5-2.9c0.7-1,2-1.2,2.9-0.6
				C839.4,124,839.6,125.4,839,126.3L839,126.3z"/>
			<path class="st22" d="M835.4,126.2c0.1,0.3,0.3,0.5,0.6,0.7c0.9,0.6,2.2,0.4,2.9-0.6c0.4-0.5,0.5-1.1,0.3-1.7
				C839.2,125.7,837.5,127.6,835.4,126.2z"/>
			<path id="XMLID_222_" class="st10" d="M836.7,123.6c0.1-0.1-0.1-0.2-0.2-0.1c-0.2,0.2-0.4,0.2-0.6,0.4c-0.1,0.1-0.3,0.3-0.3,0.5
				c0,0.1,0.2,0.1,0.3,0.1c0.1-0.1,0.2-0.3,0.3-0.5C836.3,123.9,836.5,123.8,836.7,123.6z"/>
		</g>
	</g>
	<g>
		<g id="XMLID_197_">
			<g id="XMLID_214_">
				<path id="XMLID_219_" class="st13" d="M868,91.7c0.2-0.1,0.3-0.2,0.3-0.4l0.3-2.5c0-0.2-0.2-0.5-0.4-0.5c-0.3,0-0.5,0.2-0.5,0.4
					l-0.3,2.5c0,0.2,0.2,0.5,0.4,0.5C867.9,91.7,867.9,91.7,868,91.7L868,91.7z"/>
				<g id="XMLID_215_">
					<path id="XMLID_218_" class="st14" d="M865.5,91c-0.3,1.2,0.4,2.4,1.6,2.7c1.2,0.3,2.5-0.4,2.8-1.6c0.3-1.2-0.4-2.4-1.6-2.7
						C867.1,89.1,865.8,89.8,865.5,91L865.5,91z"/>
					<path class="st15" d="M866.4,89.8c-0.4,0.3-0.8,0.7-1,1.2c-0.3,1.2,0.4,2.4,1.6,2.7c0.8,0.2,1.6,0,2.2-0.5
						C868,93.8,864.9,92,866.4,89.8z"/>
					<path id="XMLID_217_" class="st16" d="M867.4,91.7C867.4,91.7,867.4,91.7,867.4,91.7C867.4,91.7,867.4,91.7,867.4,91.7
						L867.4,91.7z"/>
					<path id="XMLID_216_" class="st10" d="M869.5,90.7c0.2,0.2,0.2,0.8,0.1,1.1c0,0.1-0.2,0.1-0.2,0c0-0.3-0.1-0.7-0.2-0.9
						C869.2,90.8,869.3,90.4,869.5,90.7z"/>
				</g>
			</g>
			<g id="XMLID_208_">
				<path id="XMLID_213_" class="st13" d="M846.6,81.8c0.2,0,0.3-0.1,0.4-0.3l0.9-2.3c0.1-0.2,0-0.5-0.2-0.6c-0.2-0.1-0.5,0-0.6,0.2
					l-0.9,2.3c-0.1,0.2,0,0.5,0.2,0.6C846.5,81.8,846.6,81.8,846.6,81.8L846.6,81.8z"/>
				<g id="XMLID_209_">
					<path id="XMLID_212_" class="st14" d="M844.4,80.1c-0.6,1-0.3,2.4,0.7,3c1,0.6,2.3,0.3,2.9-0.7c0.6-1,0.3-2.4-0.7-3
						C846.3,78.7,845,79.1,844.4,80.1L844.4,80.1z"/>
					<path class="st15" d="M845.4,82.4c-0.9-0.9-0.9-2-0.4-2.9c-0.2,0.2-0.4,0.4-0.5,0.6c-0.6,1-0.3,2.4,0.7,3
						c0.7,0.4,1.5,0.4,2.2,0C846.5,83.2,846,82.9,845.4,82.4z"/>
					<path id="XMLID_211_" class="st16" d="M846.2,81.5C846.2,81.5,846.2,81.6,846.2,81.5C846.2,81.6,846.2,81.5,846.2,81.5
						L846.2,81.5z"/>
					<path id="XMLID_210_" class="st10" d="M847.7,80c0.2,0.2,0.5,0.7,0.5,1c0,0.1-0.1,0.1-0.2,0.1c-0.1,0-0.2-0.3-0.2-0.4
						c0-0.2-0.2-0.5-0.3-0.7C847.5,80,847.7,80,847.7,80z"/>
				</g>
			</g>
			<g id="XMLID_202_">
				<path id="XMLID_207_" class="st13" d="M858.9,88.6c0.1-0.1,0.2-0.2,0.3-0.4l0.1-1.8c0-0.2-0.2-0.5-0.4-0.5
					c-0.2,0-0.4,0.2-0.5,0.4l-0.1,1.8c0,0.2,0.2,0.5,0.4,0.5C858.8,88.7,858.9,88.7,858.9,88.6L858.9,88.6z"/>
				<g id="XMLID_203_">
					<path id="XMLID_206_" class="st17" d="M856.8,89.2c0.2,1.2,1.2,2,2.3,1.9c1.1-0.1,1.9-1.2,1.7-2.3c-0.2-1.2-1.2-2-2.3-1.9
						C857.4,87,856.6,88.1,856.8,89.2L856.8,89.2z"/>
					<path class="st18" d="M856.8,88.5c0,0.2-0.1,0.4,0,0.7c0.2,1.2,1.2,2,2.3,1.9c1-0.1,1.7-0.9,1.8-1.8
						C860.5,90.4,857.2,91.4,856.8,88.5z"/>
					<path id="XMLID_205_" class="st19" d="M858.4,88.5C858.4,88.5,858.4,88.5,858.4,88.5C858.4,88.5,858.4,88.5,858.4,88.5
						L858.4,88.5z"/>
					<path id="XMLID_204_" class="st10" d="M859.5,87.4c0.2-0.2,0.7,0.2,0.9,0.9c0.1,0.2-0.1,0.1-0.3-0.1
						C859.7,87.5,859.4,87.6,859.5,87.4z"/>
				</g>
			</g>
			<g id="XMLID_198_">
				<path id="XMLID_201_" class="st13" d="M851.1,83.7c0.1,0,0.3,0,0.4-0.1l0.6-0.6c0.2-0.2,0.2-0.5,0-0.6c-0.2-0.2-0.4-0.2-0.6,0
					l-0.6,0.6c-0.2,0.2-0.2,0.5,0,0.6C851,83.7,851.1,83.7,851.1,83.7L851.1,83.7z"/>
				<path id="XMLID_200_" class="st21" d="M848.3,84c-0.3,1.1,0.3,2.3,1.4,2.6c1.1,0.3,2.2-0.4,2.5-1.5c0.3-1.1-0.3-2.3-1.4-2.6
					C849.7,82.2,848.6,82.9,848.3,84L848.3,84z"/>
				<path class="st22" d="M848.5,83.5c-0.1,0.2-0.2,0.3-0.2,0.5c-0.3,1.1,0.3,2.3,1.4,2.6c0.7,0.2,1.4,0,1.9-0.5
					C850.8,86.3,848.3,86.4,848.5,83.5z"/>
				<path id="XMLID_199_" class="st10" d="M851.4,83.2c-0.1-0.1,0.1-0.1,0.2-0.1c0.4,0.3,0.6,1.1,0.4,1.2
					C851.9,84.4,851.6,83.7,851.4,83.2z"/>
			</g>
		</g>
		<g id="XMLID_195_">
			<path class="st20" d="M846.3,77.5c0.8,0.9,1.8,1.7,2.7,2.5c1,0.8,2,1.5,3,2.1c2,1.3,4.2,2.6,6.4,3.5c2.2,1,4.5,1.8,6.9,2.4
				c2.4,0.5,4.8,0.8,7.3,0.7c-2.4,0.3-4.9,0.3-7.4-0.2c-2.4-0.4-4.8-1.3-7.1-2.3c-2.2-1-4.4-2.3-6.4-3.7
				C849.8,81.1,847.8,79.5,846.3,77.5z"/>
		</g>
	</g>
	<g id="XMLID_160_">
		<g id="XMLID_189_">
			<path id="XMLID_194_" class="st13" d="M853.2,164.9c-0.1-0.1-0.2-0.2-0.2-0.4l-0.1-2.5c0-0.2,0.2-0.5,0.4-0.5
				c0.2,0,0.4,0.2,0.4,0.4l0.1,2.5c0,0.2-0.2,0.4-0.4,0.5C853.3,165,853.2,164.9,853.2,164.9L853.2,164.9z"/>
			<g id="XMLID_190_">
				<path id="XMLID_193_" class="st14" d="M853.4,167c-1.2,0-2.2-1-2.1-2.1c0-1.2,1-2.1,2.2-2c1.2,0,2.2,1,2.1,2.1
					C855.6,166.1,854.6,167,853.4,167L853.4,167z"/>
				<path class="st15" d="M851.9,163.4c-0.4,0.4-0.6,0.9-0.7,1.5c0,1.1,0.9,2.1,2.1,2.1c0.5,0,1-0.2,1.4-0.5
					C853.5,167,850.9,165.6,851.9,163.4z"/>
				<path id="XMLID_192_" class="st16" d="M855.9,165.3C855.9,165.3,855.9,165.3,855.9,165.3C855.9,165.3,855.9,165.3,855.9,165.3
					L855.9,165.3z"/>
				<path id="XMLID_191_" class="st10" d="M854.8,163.5c-0.2-0.2-0.7-0.4-0.9-0.4c-0.1,0-0.2,0.1-0.1,0.2c0,0.1,0.1,0.2,0.2,0.2
					c0.2,0,0.4,0,0.5,0.1C855,163.8,854.9,163.5,854.8,163.5z"/>
			</g>
		</g>
		<g id="XMLID_184_">
			<path id="XMLID_188_" class="st13" d="M861.6,161.6c-0.2,0-0.3,0-0.4-0.2l-1.1-1.5c-0.2-0.2-0.1-0.5,0.1-0.6
				c0.2-0.2,0.5-0.1,0.6,0.1l1.1,1.4c0.1,0.2,0.1,0.5-0.1,0.6C861.7,161.5,861.6,161.6,861.6,161.6L861.6,161.6z"/>
			<g id="XMLID_185_">
				<path id="XMLID_187_" class="st17" d="M863.1,163.9c-0.9,0.7-2.3,0.6-3-0.3c-0.7-0.9-0.5-2.2,0.4-2.9c0.9-0.7,2.3-0.6,3,0.3
					C864.2,161.9,864,163.2,863.1,163.9L863.1,163.9z"/>
				<path class="st18" d="M859.9,161.6c-0.3,0.7-0.2,1.5,0.2,2.1c0.7,0.9,2,1,3,0.3c0.5-0.4,0.8-1,0.8-1.6
					C863.1,164.1,860,164.5,859.9,161.6z"/>
				<path id="XMLID_186_" class="st10" d="M863,160.9c-0.1-0.2-0.4-0.3-0.9-0.3c-0.2,0-0.5,0.2-0.3,0.3c0.1,0,0.8,0.1,0.9,0.1
					c0,0,0,0,0,0c0,0,0,0,0.1,0C862.9,161.1,863.1,161,863,160.9z"/>
			</g>
		</g>
		<g id="XMLID_175_">
			<g id="XMLID_176_">
				<path id="XMLID_183_" class="st19" d="M832.9,167.3C832.9,167.4,832.9,167.4,832.9,167.3C832.9,167.4,832.9,167.4,832.9,167.3
					L832.9,167.3z"/>
				<path id="XMLID_182_" class="st13" d="M824,167.6c-0.1,0-0.3-0.2-0.3-0.3l-0.4-1.8c-0.1-0.2,0.1-0.5,0.3-0.5
					c0.2-0.1,0.5,0.1,0.5,0.3l0.4,1.8c0.1,0.2-0.1,0.5-0.3,0.5C824.1,167.6,824,167.6,824,167.6L824,167.6z"/>
				<path id="XMLID_181_" class="st13" d="M833.1,167.2c-0.1,0-0.3-0.2-0.3-0.3l-0.4-1.8c-0.1-0.2,0.1-0.5,0.3-0.5
					c0.2-0.1,0.5,0.1,0.5,0.3l0.4,1.8c0.1,0.2-0.1,0.5-0.3,0.5C833.2,167.2,833.1,167.2,833.1,167.2L833.1,167.2z"/>
				<path id="XMLID_180_" class="st14" d="M822.4,169.1c0.5,1,1.8,1.5,2.8,1c1-0.5,1.4-1.8,0.8-2.8c-0.5-1-1.8-1.5-2.8-1
					C822.2,166.8,821.9,168,822.4,169.1L822.4,169.1z"/>
				<path class="st15" d="M822.8,166.6c-0.5,0.9-0.2,2.9,2.1,3.5c-0.9,0.3-2-0.1-2.5-1.1C822,168.2,822.1,167.2,822.8,166.6z"/>
				<path id="XMLID_179_" class="st10" d="M825.5,167c0-0.2-0.2-0.5-0.6-0.7c-0.2-0.1-0.4,0-0.3,0.2c0.1,0.1,0.5,0.5,0.6,0.5
					c0,0,0,0,0,0c0,0,0,0,0,0C825.4,167.1,825.6,167.2,825.5,167z"/>
				<path id="XMLID_178_" class="st17" d="M834.9,166.7c0.5,1.1,0.1,2.3-0.9,2.9c-1,0.5-2.2,0.1-2.8-0.9c-0.5-1.1-0.1-2.3,0.9-2.9
					C833.2,165.2,834.4,165.6,834.9,166.7L834.9,166.7z"/>
				<path class="st18" d="M831.9,169.3c0.6,0.5,1.5,0.6,2.2,0.3c0.7-0.4,1.1-1.2,1.1-2C834.9,167.8,834.3,169.5,831.9,169.3z"/>
				<path id="XMLID_177_" class="st10" d="M834.3,166.4c0-0.2-0.3-0.5-0.6-0.7c-0.2-0.1-0.4,0-0.3,0.2c0.1,0.1,0.5,0.5,0.6,0.5
					c0,0,0,0,0,0c0,0,0,0,0.1,0C834.1,166.5,834.3,166.6,834.3,166.4z"/>
			</g>
		</g>
		<g id="XMLID_173_">
			<path class="st20" d="M815,165c6.9,0.3,13.7,0.2,20.6-0.5c6.8-0.7,13.6-1.9,20.1-4c6.6-1.9,12.8-4.8,18.7-8.3
				c2.9-1.8,5.7-3.8,8.3-6c2.6-2.2,5.1-4.6,7.3-7.2c-2.2,2.6-4.6,5.2-7.1,7.5c-2.6,2.3-5.3,4.4-8.2,6.2c-5.8,3.7-12.2,6.5-18.8,8.6
				c-6.6,2-13.4,3.3-20.3,3.8c-3.4,0.3-6.9,0.4-10.3,0.4C821.8,165.4,818.4,165.2,815,165z"/>
		</g>
		<g id="XMLID_169_">
			<path id="XMLID_172_" class="st13" d="M869.8,156.6c-0.2,0-0.3,0-0.4-0.2l-0.5-0.6c-0.1-0.2-0.1-0.5,0.1-0.6
				c0.2-0.1,0.5-0.1,0.6,0.1l0.5,0.6c0.1,0.2,0.1,0.5-0.1,0.6C869.9,156.6,869.9,156.6,869.8,156.6L869.8,156.6z"/>
			<path id="XMLID_171_" class="st21" d="M870.2,159.5c1.1,0.5,2.3,0.2,2.9-0.8c0.5-1,0.1-2.3-1-2.8c-1.1-0.5-2.3-0.2-2.9,0.8
				C868.7,157.7,869.1,158.9,870.2,159.5L870.2,159.5z"/>
			<path class="st22" d="M869,157.7c1,1.2,2.6,1.4,3.8-0.1c0.1-0.3,0.2-0.4,0.3-0.6c0.2,0.5,0.2,1.1-0.1,1.7c-0.5,1-1.8,1.4-2.9,0.8
				C869.5,159.1,869.1,158.4,869,157.7z"/>
			<path id="XMLID_170_" class="st10" d="M870.9,156c-0.1,0-0.2-0.2,0.2-0.2c0.3,0,1.1,0.3,1.2,0.5c0,0.1,0,0.1-0.1,0.1
				C871.9,156.3,871.9,156.1,870.9,156z"/>
		</g>
		<g id="XMLID_165_">
			<path id="XMLID_168_" class="st13" d="M881.6,148.8c-0.2,0-0.3,0-0.4-0.2l-0.5-0.6c-0.1-0.2-0.1-0.5,0.1-0.6
				c0.2-0.2,0.5-0.1,0.6,0.1l0.5,0.6c0.1,0.2,0.1,0.5-0.1,0.6C881.7,148.7,881.7,148.7,881.6,148.8L881.6,148.8z"/>
			<path id="XMLID_167_" class="st21" d="M884.2,149.1c0.2,1.2-0.5,2.3-1.6,2.5c-1.1,0.2-2.2-0.6-2.4-1.7c-0.2-1.2,0.5-2.3,1.6-2.5
				C882.9,147.2,884,148,884.2,149.1L884.2,149.1z"/>
			<path class="st22" d="M883.6,148.7c-0.3,1.3-1.2,2.5-2.5,2.6c0.4,0.3,0.9,0.4,1.4,0.3c1.1-0.2,1.8-1.3,1.6-2.5
				c-0.1-0.5-0.4-0.9-0.7-1.3C883.6,148.2,883.6,148.5,883.6,148.7z"/>
			<path id="XMLID_166_" class="st10" d="M881.7,148c-0.1,0-0.2-0.2,0.1-0.3c0.6-0.3,1.2,0,1.3,0.2c0.1,0.1-0.2,0-0.5,0
				C882,147.8,881.9,148,881.7,148z"/>
		</g>
		<g id="XMLID_161_">
			<path id="XMLID_164_" class="st13" d="M843.2,165.1c-0.2,0-0.3,0-0.4-0.2l-0.5-0.6c-0.1-0.2-0.1-0.5,0.1-0.6
				c0.2-0.2,0.5-0.1,0.6,0.1l0.5,0.6c0.1,0.2,0.1,0.5-0.1,0.6C843.4,165.1,843.3,165.1,843.2,165.1L843.2,165.1z"/>
			<path id="XMLID_163_" class="st21" d="M842.1,167.2c0.5,1.1,1.7,1.6,2.7,1.2c1-0.4,1.5-1.7,1.1-2.8c-0.5-1.1-1.7-1.6-2.7-1.2
				C842.1,164.9,841.6,166.1,842.1,167.2L842.1,167.2z"/>
			<path class="st22" d="M845.5,167.8c-0.2,0.2-0.4,0.4-0.7,0.6c-1,0.4-2.3-0.1-2.7-1.2c-0.2-0.6-0.2-1.2,0-1.7
				C842,166.6,843.2,168.7,845.5,167.8z"/>
			<path id="XMLID_162_" class="st10" d="M843.7,164.7c-0.1-0.1,0-0.2,0.1-0.2c0.4-0.1,1.2,0.3,1.3,0.5c0,0.1-0.3-0.1-0.6-0.1
				C844.1,164.8,843.8,164.8,843.7,164.7z"/>
		</g>
	</g>
</g>
<path class="st3" d="M595.8,40.4c0.8,0.1,1.3,0.7,1.2,1.4s-0.8,1.3-1.5,1.3s-1.3-0.8-1.3-1.5C594.4,40.8,595,40.3,595.8,40.4z"/>
<g>
	<g>
		<g>
			<g>
				<path class="st23" d="M881.7,256.6l6.8-1.6c0,0,2,1.8,2.8,2.6c0.4,0.4,1.3,0.3,1.9-0.5c0.9-1.2,3.1-4,3.1-4l1.6-0.4
					c0,0,5.1,1,7,1.2c0.6,0.1,1-0.2,1-0.3c0.1-0.7,0.2-2.9,0.2-2.9l11.2-2.7l-8.5-3.4l-28.1-11.5l-29.4,7.4L881.7,256.6z"/>
				<g>
					<g>
						<polygon class="st24" points="851.4,240.5 880,249.7 885.8,199.8 857.2,190.6 						"/>
						<polygon class="st25" points="880,249.7 908.9,244.6 914.7,194.7 885.7,199.8 						"/>
						<polygon class="st26" points="885.5,199.8 915.1,194.6 886.3,185.3 856.7,190.6 						"/>
						<polygon class="st27" points="867.1,245.6 859.9,243.2 865.7,193.4 872.9,195.7 						"/>
						<polygon class="st28" points="897.8,246.5 890.1,247.8 895.9,198 903.6,196.6 						"/>
						<polygon class="st29" points="884.3,212.4 855.3,203.1 856.7,190.6 885.8,199.8 						"/>
						<polygon class="st28" points="871,208.1 863.7,205.8 865.2,193.3 872.5,195.6 						"/>
						<polygon class="st24" points="913.7,207.1 884,212.3 885.5,199.8 915.1,194.6 						"/>
						<polygon class="st30" points="902.7,209 895,210.4 896.5,197.9 904.2,196.5 						"/>
						<polygon class="st27" points="903.2,190.6 872.3,195.6 865.1,193.2 897.8,188.9 						"/>
						<polygon class="st27" points="876.7,187 904.2,196.5 896.4,197.9 871.2,188 						"/>
					</g>
					<g>
						<g>
							<path class="st27" d="M886.6,194c0,0,15.9,4.4,17.2,0.3c0.6-2.1-1.5-3-1.8-4c-0.3-1.2,1.3-2.3,0-4.1
								c-0.6-0.8-1.5-1.1-2.5-1.1c-3.1,0.1-8.3,1.3-13.2,6.1L886.6,194z"/>
							<path class="st30" d="M886.7,194.7c0,0,15.8,4.7,17.1-0.4c0,0-1-3.3-17.2-0.3L886.7,194.7z"/>
						</g>
						<g>
							<path class="st27" d="M884.2,193.2l-15.8-1.1c0,0,0.3-2.9,2.4-4.1c0.1-1-0.6-2.8,0.2-4c0.9-1.4,3-1,3.6-0.9
								c2.8,0.3,6.6,3,10.8,8.1L884.2,193.2z"/>
							<path class="st30" d="M883.9,194.2c0,0-15,2.6-15.4-2.1c0,0,2.1-4.8,15.8,1.1L883.9,194.2z"/>
						</g>
						<path class="st28" d="M882.7,192.2L882.7,192.2c-0.2,1.3,1,2.5,2.7,2.8h0.1c1.7,0.3,3.2-0.6,3.4-1.9l0,0
							c0.2-1.3,0.1-3.4-2.7-3.7S882.9,190.9,882.7,192.2z"/>
					</g>
				</g>
			</g>
			<g>
				<path class="st31" d="M829.8,254.6l6.2-1.7c0,0,1.9,1.6,2.7,2.3c0.4,0.3,1.2,0.3,1.8-0.5c0.8-1.1,2.7-3.8,2.7-3.8l1.4-0.4
					c0,0,4.8,0.7,6.5,0.9c0.5,0,0.9-0.2,0.9-0.3c0-0.7,0.1-2.7,0.1-2.7l10.3-2.9l-7.9-2.8l-26.3-9.6l-26.8,7.8L829.8,254.6z"/>
				<g>
					<g>
						<polygon class="st1" points="801.4,240.8 828,248.3 830.4,217.5 803.8,210 						"/>
						<polygon class="st32" points="828,248.3 854.5,242.6 856.9,211.8 830.4,217.5 						"/>
						<polygon class="st33" points="830.2,217.4 857.3,211.6 830.4,204.1 803.4,209.9 						"/>
						<polygon class="st27" points="816,245 809.3,243.1 811.7,212.2 818.5,214.1 						"/>
						<polygon class="st28" points="844.3,244.8 837.3,246.3 839.7,215.4 846.7,213.9 						"/>
						<polygon class="st34" points="829.5,229 802.5,221.5 803.4,209.9 830.4,217.5 						"/>
						<polygon class="st28" points="817.1,225.6 810.3,223.7 811.3,212.1 818,214 						"/>
						<polygon class="st35" points="856.4,223.2 829.3,229 830.2,217.4 857.3,211.6 						"/>
						<polygon class="st30" points="846.3,225.3 839.3,226.9 840.2,215.3 847.2,213.8 						"/>
						<polygon class="st27" points="846.2,208.4 817.9,214 811.1,212.1 841.2,207 						"/>
						<polygon class="st27" points="821.7,206 847.2,213.8 840.1,215.3 816.6,207.1 						"/>
					</g>
					<g>
						<path class="st36" d="M828.5,210c0,0,3.7,2.1,8.7,4.5c5,2.3,4.2,15.6,4.2,15.6l4.1-6.9l3,6.1c0,0,1.2-12.8-2.7-15.4
							c-2.9-1.9-9-4.5-15.1-5C829.7,208.7,827.6,208.5,828.5,210z"/>
						<path class="st36" d="M828.7,210.7c0,0-2,1-8.8,3c-2.4,0.7-4,9.1-4.7,14.7l-2.9-6.1l-3.8,4.8c0,0,0.6-10.4,3.1-13.9
							c2.1-2.9,10.8-4.5,15.5-3.4C828,210,828.7,210.7,828.7,210.7z"/>
						<g>
							<path class="st27" d="M831.1,211.7c0,0,18.3,4.3,19.5-0.4c0.6-2.4-1.9-3.3-2.2-4.5c-0.3-1.4,1.4-2.7-0.1-4.6
								c-0.7-0.9-1.7-1.2-2.9-1.2c-3.5,0.2-9.4,1.9-14.7,7.5L831.1,211.7z"/>
							<path class="st30" d="M831.3,212.5c0,0,18.2,4.6,19.4-1.2c0,0-1.3-3.7-19.5,0.4L831.3,212.5z"/>
						</g>
						<g>
							<path class="st27" d="M828.5,210.9l-18-0.6c0,0,0.3-3.3,2.6-4.7c0.1-1.1-0.8-3.1,0-4.6c1-1.7,3.4-1.2,4.1-1.2
								c3.2,0.2,7.6,3.1,12.6,8.7L828.5,210.9z"/>
							<path class="st30" d="M828.1,212c0,0-17,3.6-17.7-1.7c0,0,2.2-5.5,18,0.6L828.1,212z"/>
						</g>
						<path class="st28" d="M826.6,209.8L826.6,209.8c-0.1,1.5,1.3,2.8,3.2,3.1h0.1c1.9,0.2,3.6-0.8,3.8-2.3l0,0
							c0.2-1.5-0.1-3.8-3.3-4.1C827.3,206.3,826.8,208.4,826.6,209.8z"/>
					</g>
				</g>
			</g>
		</g>
	</g>
</g>
<g>
	<g id="XMLID_239_">
		<g id="XMLID_240_">
			<path id="XMLID_243_" class="st14" d="M788.4,253.6c-7.1-0.1-12.7-5.7-12.6-12.5c0.1-6.8,6-12.2,13-12
				c7.1,0.1,12.7,5.7,12.6,12.5C801.3,248.3,795.4,253.7,788.4,253.6L788.4,253.6z"/>
			<path class="st15" d="M779.6,232.5c-2.3,2.2-3.8,5.2-3.8,8.5c-0.1,6.8,5.5,12.3,12.6,12.5c3.1,0.1,5.9-1,8.2-2.7
				C788.8,253.5,773.8,245.7,779.6,232.5z"/>
			<path id="XMLID_242_" class="st16" d="M803,243.5c-0.1,0.1-0.2,0.2-0.4,0.4C802.8,243.8,802.9,243.7,803,243.5L803,243.5z"/>
			<path id="XMLID_241_" class="st10" d="M796.5,233c-1.1-1.2-3.9-2.5-5.6-2.3c-0.6,0-0.9,0.5-0.9,1.1c0.1,0.7,0.7,1.3,1.4,1.5
				c1.1,0.2,2.1,0.3,3.2,0.7C797.6,235,796.9,233.4,796.5,233z"/>
		</g>
	</g>
	<g id="XMLID_234_">
		<g id="XMLID_235_">
			<path id="XMLID_237_" class="st17" d="M771.8,233c-4.5,3.4-10.9,2.8-14.3-1.4c-3.4-4.2-2.5-10.5,1.9-13.9
				c4.5-3.4,10.9-2.8,14.3,1.4C777.2,223.3,776.3,229.6,771.8,233L771.8,233z"/>
			<path class="st37" d="M756.3,221.6c-1.5,3.2-1.2,7,1.2,9.9c3.4,4.3,9.8,4.9,14.3,1.4c2.5-1.9,3.8-4.7,4-7.6
				C772,233.7,756.6,235.7,756.3,221.6z"/>
			<path id="XMLID_236_" class="st10" d="M771.2,218.4c-0.5-0.9-1.7-1.6-4.4-1.5c-1,0-2.2,1-1.3,1.4c0.4,0.1,3.8,0.7,4.2,0.7
				c-0.2,0,0.1,0,0.2,0c0.1,0,0.2,0,0.3,0.1C770.7,219.3,771.6,219,771.2,218.4z"/>
		</g>
	</g>
	<g id="XMLID_51_">
		<path id="XMLID_53_" class="st21" d="M748.8,250.7c-7.4,0.9-14.2-4.1-15.1-11.1c-0.9-7.1,4.4-13.6,11.8-14.5
			c7.4-1,14.2,4,15.1,11.1C761.5,243.2,756.2,249.7,748.8,250.7L748.8,250.7z"/>
		<path class="st22" d="M751.5,247.3c-8.3-2.2-15.1-8.2-15.4-16.7c-1.8,2.5-2.8,5.7-2.4,8.9c0.9,7.1,7.6,12.1,15.1,11.1
			c3.3-0.4,6.1-2,8.2-4.1C755.2,247.1,753.3,247.4,751.5,247.3z"/>
		<path id="XMLID_52_" class="st10" d="M756.8,235.2c0.1-0.9,1.3-1.1,1.9,0.6c1.5,3.9-0.5,7.4-1.6,8c-0.7,0.4,0.1-1,0.5-3.1
			C758.1,237.4,756.6,236.5,756.8,235.2z"/>
	</g>
</g>
<path class="st3" d="M696.2,23c-1.1,0.4-1.8,1.5-1.7,2.6l-3.3,1.1l3.3-6.5c0.2-0.3,0-0.7-0.3-0.9c-0.3-0.2-0.7,0-0.9,0.3l-3.9,7.7
	l-3.4,1.1l3.8-7.4c0.2-0.3,0.1-0.7-0.1-1c-0.2-0.3-0.6-0.4-1-0.3l0,0l-7.9,2.7l1.6-3.2l8.2-2.8c0.4-0.1,0.5-0.5,0.4-0.9
	s-0.5-0.5-0.9-0.4l0,0l-6.9,2.3l1.6-3.2c1.1,0.2,2.2-0.3,2.7-1.3c0.6-1.3,0.1-2.8-1.1-3.4c-1.3-0.6-2.8-0.1-3.4,1.1
	c-0.5,1.1-0.2,2.3,0.6,3l-1.6,3.2l-2.2-6.9c-0.1-0.4-0.5-0.6-0.9-0.4l0,0c-0.4,0.1-0.5,0.5-0.4,0.9l2.7,8.2l-1.6,3.2l-2.6-8
	c-0.1-0.3-0.4-0.6-0.8-0.6c-0.4,0-0.7,0.2-0.9,0.5l-3.7,7.5l-1.1-3.4l3.8-7.7c0.2-0.3,0-0.7-0.3-0.9s-0.7,0-0.9,0.3l-3.2,6.5
	l-1.1-3.4c0.9-0.6,1.4-1.8,1-2.9c-0.4-1.3-1.9-2.1-3.2-1.6c-1.3,0.4-2.1,1.9-1.6,3.2c0.4,1.1,1.4,1.8,2.6,1.7l1.1,3.4l-6.5-3.3
	c-0.3-0.2-0.7,0-0.9,0.3s0,0.7,0.3,0.9l7.7,3.9l1.1,3.4l-7.4-3.8c-0.3-0.2-0.7-0.1-1,0.1s-0.4,0.6-0.3,1l2.7,7.9l-3.2-1.6l-2.8-8.2
	c-0.1-0.4-0.5-0.6-0.9-0.4c-0.4,0.1-0.5,0.5-0.4,0.9l2.3,6.9l-3.2-1.6c0.2-1.1-0.2-2.3-1.3-2.8c-1.3-0.6-2.8-0.1-3.4,1.1
	c-0.6,1.3-0.1,2.8,1.1,3.4c1,0.5,2.2,0.2,3-0.5l3.2,1.6l-6.9,2.2l0,0c-0.4,0.1-0.5,0.5-0.4,0.9s0.5,0.6,0.9,0.4l8.2-2.7l3.2,1.6
	l-8,2.6l0,0c-0.3,0.1-0.6,0.4-0.6,0.8s0.2,0.7,0.5,0.9l7.5,3.7l-3.4,1.1l-7.7-3.8c-0.3-0.2-0.7,0-0.9,0.3s0,0.7,0.3,0.9l6.5,3.2
	l-3.3,1.1c-0.6-1-1.8-1.5-3-1.1c-1.3,0.4-2.1,1.9-1.6,3.2c0.4,1.3,1.9,2.1,3.2,1.6c1.1-0.4,1.8-1.4,1.7-2.5l3.3-1.1l-3.3,6.5
	c-0.2,0.3,0,0.7,0.3,0.9c0.2,0.1,0.4,0.1,0.5,0c0.2-0.1,0.3-0.2,0.4-0.3l3.9-7.7l3.4-1.1l-3.8,7.4c-0.2,0.3-0.1,0.7,0.1,1
	c0.2,0.3,0.6,0.4,1,0.3l0,0l7.9-2.7l-1.6,3.2l-8.2,2.8c-0.4,0.1-0.5,0.5-0.4,0.9s0.5,0.5,0.9,0.4l0,0l6.9-2.3l-1.5,3.1
	c-1.1-0.2-2.3,0.2-2.8,1.3c-0.6,1.3-0.1,2.8,1.1,3.4c1.3,0.6,2.8,0.1,3.4-1.1c0.5-1,0.2-2.2-0.5-3l1.6-3.1l2.2,6.9
	c0.1,0.4,0.5,0.6,0.9,0.4l0,0c0.4-0.1,0.5-0.5,0.4-0.8l-2.7-8.2l1.6-3.2l2.6,7.9c0.1,0.3,0.4,0.6,0.8,0.6c0.4,0,0.7-0.2,0.9-0.5
	l3.7-7.5l1.1,3.4l-3.8,7.7c-0.2,0.3,0,0.7,0.3,0.9s0.7,0,0.9-0.3l3.2-6.5l1.1,3.2c-0.9,0.6-1.4,1.8-1,2.9c0.4,1.3,1.9,2.1,3.2,1.6
	c1.3-0.4,2.1-1.9,1.6-3.2c-0.4-1.1-1.4-1.8-2.6-1.7l-1.1-3.2l6.5,3.3c0.2,0.1,0.4,0.1,0.5,0c0.2-0.1,0.3-0.2,0.4-0.3
	c0.2-0.3,0-0.7-0.3-0.9l-7.7-3.9l-1.1-3.4l7.4,3.8c0.2,0.1,0.5,0.1,0.7,0.1c0.1,0,0.2-0.1,0.3-0.2c0.3-0.2,0.4-0.6,0.3-1l-2.7-7.9
	l3.2,1.6l2.8,8.2c0.1,0.4,0.5,0.5,0.9,0.4l0,0c0.4-0.1,0.5-0.5,0.4-0.9l-2.3-6.9l3.1,1.6c-0.2,1.1,0.3,2.2,1.3,2.7
	c1.3,0.6,2.8,0.1,3.4-1.1c0.6-1.3,0.1-2.8-1.1-3.4c-1.1-0.5-2.3-0.2-3,0.6l-3.1-1.5l6.9-2.2l0,0c0.4-0.1,0.5-0.5,0.4-0.8
	c-0.1-0.4-0.5-0.6-0.9-0.4l-8.2,2.7l-3.2-1.6l8-2.6l0,0c0.3-0.1,0.6-0.4,0.6-0.8c0-0.4-0.2-0.7-0.5-0.9l-7.5-3.7l3.4-1.1l7.7,3.8
	c0.2,0.1,0.4,0.1,0.5,0c0.2-0.1,0.3-0.2,0.4-0.3c0.2-0.3,0-0.7-0.3-0.9l-6.5-3.2l3.3-1.1c0.6,0.9,1.8,1.3,2.9,0.9
	c1.3-0.4,2.1-1.9,1.6-3.2C699,23.3,697.6,22.5,696.2,23z M687.2,22.1l-3.6,7.1l-7.4,2.5l3.5-7L687.2,22.1z M676,16.5l2.4,7.6l-3.5,7
	l-2.5-7.4L676,16.5z M664,20.4l7.1,3.6l2.5,7.4l-7-3.5L664,20.4z M658.4,31.6l7.6-2.4l7,3.5l-7.4,2.5L658.4,31.6z M662.3,43.5
	l3.6-7.1l7.5-2.5l-3.5,7L662.3,43.5z M673.5,49.2l-2.4-7.6l3.5-7l2.5,7.4L673.5,49.2z M685.5,45.3l-7.1-3.6l-2.5-7.4l7,3.5
	L685.5,45.3z M691.1,34.1l-7.6,2.4l-7-3.5l7.4-2.5L691.1,34.1z"/>
<path class="st3" d="M643.8,233.6c-1.6,0.5-2.6,2.1-2.5,3.8l-4.7,1.6l4.8-9.3c0.2-0.5,0.1-1.1-0.4-1.3s-1.1-0.1-1.3,0.4l-5.7,11
	l-4.9,1.6l5.5-10.7c0.2-0.5,0.2-1-0.2-1.4c-0.3-0.4-0.9-0.5-1.4-0.4l0,0l-11.4,3.8l2.3-4.6l11.7-4c0.5-0.2,0.8-0.7,0.6-1.2
	s-0.7-0.8-1.2-0.6l0,0l-9.9,3.3l2.3-4.6c1.5,0.3,3.1-0.4,3.9-1.9c0.9-1.8,0.2-4-1.6-4.9s-4-0.2-4.9,1.6c-0.8,1.5-0.3,3.3,0.9,4.4
	l-2.3,4.6l-3.2-9.9c-0.2-0.5-0.7-0.8-1.2-0.6l0,0c-0.5,0.2-0.8,0.7-0.6,1.2l3.8,11.8l-2.3,4.6l-3.7-11.4c-0.2-0.5-0.6-0.9-1.1-0.9
	s-1,0.2-1.3,0.7l-5.3,10.8l-1.6-4.9l5.5-11.1c0.2-0.5,0-1.1-0.4-1.3c-0.5-0.2-1.1,0-1.3,0.4l-4.6,9.4l-1.6-4.9
	c1.3-0.9,2-2.6,1.5-4.2c-0.6-1.9-2.7-3-4.6-2.3c-1.9,0.6-3,2.7-2.3,4.6c0.5,1.6,2.1,2.6,3.7,2.5l1.6,4.8l-9.3-4.7
	c-0.5-0.2-1.1-0.1-1.3,0.4s-0.1,1.1,0.4,1.3l11,5.6l1.6,4.9l-10.7-5.5c-0.5-0.2-1-0.2-1.4,0.2c-0.4,0.3-0.5,0.9-0.4,1.4l3.8,11.4
	l-4.6-2.3l-4-11.7c-0.2-0.5-0.7-0.8-1.2-0.6s-0.8,0.7-0.6,1.2l3.3,9.9l-4.6-2.3c0.4-1.6-0.3-3.3-1.9-4.1c-1.8-0.9-4-0.2-4.9,1.6
	s-0.2,4,1.6,4.9c1.5,0.7,3.2,0.4,4.3-0.8l4.6,2.3l-9.9,3.2l0,0c-0.5,0.2-0.8,0.7-0.6,1.2s0.7,0.8,1.2,0.6l11.8-3.8l4.6,2.3
	l-11.4,3.7l0,0c-0.5,0.2-0.8,0.6-0.9,1.1c0,0.5,0.2,1,0.7,1.3l10.8,5.3l-4.9,1.6l-11.1-5.5c-0.5-0.2-1.1,0-1.3,0.4
	c-0.2,0.5,0,1.1,0.4,1.3l9.3,4.6l-4.7,1.6c-0.9-1.4-2.6-2.1-4.3-1.6c-1.9,0.6-3,2.7-2.3,4.6c0.6,1.9,2.7,3,4.6,2.3
	c1.6-0.5,2.5-2,2.5-3.5l4.8-1.6l-4.8,9.3c-0.2,0.5-0.1,1.1,0.4,1.3c0.2,0.1,0.5,0.1,0.7,0.1c0.2-0.1,0.4-0.2,0.6-0.5l5.6-11l4.9-1.6
	l-5.5,10.7c-0.2,0.5-0.2,1,0.2,1.4c0.3,0.4,0.9,0.5,1.4,0.4l0,0l11.4-3.8l-2.3,4.6l-11.7,4c-0.5,0.2-0.8,0.7-0.6,1.2
	s0.7,0.8,1.2,0.6l0,0l9.9-3.3l-2.2,4.4c-1.6-0.4-3.3,0.3-4.1,1.9c-0.9,1.8-0.2,4,1.6,4.9s4,0.2,4.9-1.6c0.7-1.5,0.4-3.2-0.8-4.3
	l2.2-4.4l3.2,9.9c0.2,0.5,0.7,0.8,1.2,0.6l0,0c0.5-0.2,0.8-0.7,0.6-1.2l-3.8-11.8l2.3-4.6l3.7,11.4c0.2,0.5,0.6,0.9,1.1,0.9
	s1-0.2,1.3-0.7l5.3-10.8l1.6,4.9l-5.5,11.1c-0.2,0.5,0,1.1,0.4,1.3c0.5,0.2,1.1,0,1.3-0.4l4.6-9.3l1.5,4.6c-1.3,0.9-2,2.6-1.5,4.2
	c0.6,1.9,2.7,3,4.6,2.3c1.9-0.6,3-2.7,2.3-4.6c-0.5-1.6-2.1-2.6-3.7-2.5l-1.5-4.6l9.3,4.8c0.2,0.1,0.5,0.1,0.7,0.1
	c0.2-0.1,0.4-0.2,0.6-0.5c0.2-0.5,0.1-1.1-0.4-1.3l-11-5.7l-1.6-4.9l10.7,5.5c0.3,0.2,0.7,0.2,1,0.1c0.2-0.1,0.3-0.1,0.4-0.2
	c0.4-0.3,0.5-0.9,0.4-1.4l-3.8-11.4l4.6,2.3l4,11.7c0.2,0.5,0.7,0.8,1.2,0.6l0,0c0.5-0.2,0.8-0.7,0.6-1.2l-3.3-9.9l4.4,2.2
	c-0.3,1.5,0.4,3.1,1.9,3.9c1.8,0.9,4,0.2,4.9-1.6c0.9-1.8,0.2-4-1.6-4.9c-1.5-0.8-3.3-0.3-4.4,0.9l-4.4-2.2l9.9-3.2l0,0
	c0.5-0.2,0.8-0.7,0.6-1.2s-0.7-0.8-1.2-0.6l-11.8,3.8l-4.6-2.3l11.4-3.7l0,0c0.5-0.2,0.8-0.6,0.9-1.1c0-0.5-0.2-1-0.7-1.3l-10.8-5.3
	l4.9-1.6l11.1,5.5c0.2,0.1,0.5,0.1,0.7,0.1c0.2-0.1,0.4-0.2,0.6-0.5c0.2-0.5,0-1.1-0.4-1.3l-9.3-4.6l4.8-1.6
	c0.9,1.3,2.6,1.9,4.1,1.4c1.9-0.6,3-2.7,2.3-4.6C647.8,234,645.8,232.9,643.8,233.6z M630.9,232.4l-5.2,10.2l-10.7,3.5l5.1-10
	L630.9,232.4z M614.8,224.3l3.5,10.9l-5.1,10l-3.5-10.7L614.8,224.3z M597.7,229.9l10.2,5.2l3.5,10.7l-10-5.1L597.7,229.9z
	 M589.6,246l10.9-3.5l10.1,5.1l-10.7,3.5L589.6,246z M595.2,263.1l5.2-10.2l10.7-3.5l-5.1,10L595.2,263.1z M611.3,271.2l-3.5-10.9
	l5.1-10l3.5,10.7L611.3,271.2z M628.4,265.5l-10.2-5.2l-3.5-10.7l10,5.1L628.4,265.5z M636.5,249.4l-10.9,3.5l-10-5.1l10.7-3.5
	L636.5,249.4z"/>
<path class="st3" d="M279.8,26.8c-1.2,0.4-1.8,1.5-1.8,2.7l-3.3,1.1l3.3-6.5c0.2-0.3,0-0.7-0.3-0.9c-0.3-0.2-0.7,0-0.9,0.3l-4,7.7
	l-3.4,1.1l3.8-7.5c0.2-0.3,0.1-0.7-0.1-1s-0.6-0.4-1-0.3l0,0l-8,2.7l1.6-3.2l8.2-2.8c0.4-0.1,0.5-0.5,0.4-0.9s-0.5-0.5-0.9-0.4l0,0
	l-6.9,2.3l1.6-3.2c1.1,0.2,2.2-0.3,2.7-1.3c0.6-1.3,0.1-2.8-1.1-3.5c-1.3-0.6-2.8-0.1-3.5,1.1c-0.5,1.1-0.2,2.3,0.6,3.1l-1.6,3.2
	l-2.2-7c-0.1-0.4-0.5-0.6-0.9-0.4l0,0c-0.4,0.1-0.5,0.5-0.4,0.9l2.7,8.3l-1.6,3.2l-2.6-8c-0.1-0.3-0.4-0.6-0.8-0.6s-0.7,0.2-0.9,0.5
	L255,25l-1.1-3.4l3.9-7.8c0.2-0.3,0-0.7-0.3-0.9s-0.7,0-0.9,0.3l-3.2,6.6l-1.1-3.4c0.9-0.6,1.4-1.8,1-2.9c-0.4-1.3-1.9-2.1-3.3-1.6
	c-1.3,0.4-2.1,1.9-1.6,3.3c0.4,1.1,1.4,1.8,2.6,1.8l1.1,3.4l-6.5-3.3c-0.3-0.2-0.7,0-0.9,0.3s0,0.7,0.3,0.9l7.7,4l1.1,3.4l-7.5-3.8
	c-0.3-0.2-0.7-0.1-1,0.1s-0.4,0.6-0.3,1l2.7,8l-3.2-1.6l-2.8-8.2c-0.1-0.4-0.5-0.6-0.9-0.4c-0.4,0.1-0.5,0.5-0.4,0.9l2.3,6.9
	l-3.2-1.6c0.2-1.1-0.2-2.3-1.3-2.8c-1.3-0.6-2.8-0.1-3.5,1.1c-0.6,1.3-0.1,2.8,1.1,3.5c1,0.5,2.2,0.2,3-0.5l3.2,1.6l-7,2.2l0,0
	c-0.4,0.1-0.6,0.5-0.4,0.9c0.1,0.4,0.5,0.6,0.9,0.4l8.3-2.7l3.2,1.6l-8,2.6l0,0c-0.3,0.1-0.6,0.4-0.6,0.8c0,0.4,0.2,0.7,0.5,0.9
	l7.5,3.7l-3.4,1.1l-7.8-3.9c-0.3-0.2-0.7,0-0.9,0.3s0,0.7,0.3,0.9l6.6,3.2l-3.3,1.1c-0.6-1-1.8-1.5-3-1.1c-1.3,0.4-2.1,1.9-1.6,3.3
	c0.4,1.3,1.9,2.1,3.2,1.6c1.1-0.4,1.8-1.4,1.8-2.5l3.3-1.1l-3.3,6.5c-0.2,0.3,0,0.7,0.3,0.9c0.2,0.1,0.4,0.1,0.5,0
	c0.2-0.1,0.3-0.2,0.4-0.3l4-7.7l3.4-1.1l-3.8,7.5c-0.2,0.3-0.1,0.7,0.1,1c0.2,0.3,0.6,0.4,1,0.3l0,0l8-2.7l-1.6,3.2l-8.2,2.8
	c-0.4,0.1-0.5,0.5-0.4,0.9s0.5,0.5,0.9,0.4l0,0l6.9-2.3l-1.6,3.1c-1.1-0.2-2.3,0.2-2.8,1.3c-0.6,1.3-0.1,2.8,1.1,3.5
	c1.3,0.6,2.8,0.1,3.5-1.1c0.5-1,0.2-2.2-0.5-3l1.6-3.1l2.2,7c0.1,0.4,0.5,0.6,0.9,0.4l0,0c0.4-0.1,0.6-0.5,0.4-0.9l-2.7-8.3l1.6-3.2
	l2.6,8c0.1,0.4,0.4,0.6,0.8,0.6s0.7-0.2,0.9-0.5l3.7-7.5l1.1,3.4l-3.9,7.8c-0.2,0.3,0,0.7,0.3,0.9s0.7,0,0.9-0.3l3.2-6.6l1.1,3.2
	c-0.9,0.6-1.4,1.8-1,2.9c0.4,1.3,1.9,2.1,3.3,1.6c1.3-0.4,2.1-1.9,1.6-3.3c-0.4-1.1-1.4-1.8-2.6-1.8l-1.1-3.2l6.5,3.3
	c0.2,0.1,0.4,0.1,0.5,0c0.2-0.1,0.3-0.2,0.4-0.3c0.2-0.3,0-0.7-0.3-0.9l-7.7-4l-1.1-3.4l7.5,3.8c0.2,0.1,0.5,0.1,0.7,0.1
	c0.1,0,0.2-0.1,0.3-0.2c0.3-0.2,0.4-0.6,0.3-1l-2.7-8l3.2,1.6l2.8,8.2c0.1,0.4,0.5,0.5,0.9,0.4l0,0c0.4-0.1,0.5-0.5,0.4-0.9
	l-2.3-6.9l3.1,1.6c-0.2,1.1,0.3,2.2,1.3,2.7c1.3,0.6,2.8,0.1,3.5-1.1c0.6-1.3,0.1-2.8-1.1-3.5c-1.1-0.5-2.3-0.2-3.1,0.6l-3.1-1.6
	l7-2.2l0,0c0.4-0.1,0.5-0.5,0.4-0.9s-0.5-0.6-0.9-0.4l-8.3,2.7l-3.2-1.6l8-2.6l0,0c0.3-0.1,0.6-0.4,0.6-0.8c0-0.4-0.2-0.7-0.5-0.9
	l-7.5-3.7l3.4-1.1l7.8,3.9c0.2,0.1,0.4,0.1,0.5,0c0.2-0.1,0.3-0.2,0.4-0.3c0.2-0.3,0-0.7-0.3-0.9l-6.6-3.2l3.3-1.1
	c0.6,0.9,1.8,1.3,2.9,0.9c1.3-0.4,2.1-1.9,1.6-3.3C282.6,27.1,281.1,26.4,279.8,26.8z M270.7,26l-3.7,7.1l-7.5,2.5l3.5-7L270.7,26z
	 M259.4,20.3l2.5,7.6l-3.5,7l-2.5-7.5L259.4,20.3z M247.4,24.2l7.1,3.7l2.5,7.5l-7-3.5L247.4,24.2z M241.7,35.5l7.6-2.5l7.1,3.5
	l-7.5,2.5L241.7,35.5z M245.7,47.5l3.7-7.1l7.5-2.5l-3.5,7L245.7,47.5z M257,53.2l-2.5-7.6l3.5-7l2.5,7.5L257,53.2z M269,49.2
	l-7.1-3.7l-2.5-7.5l7,3.5L269,49.2z M274.7,38l-7.6,2.5l-7-3.5l7.5-2.5L274.7,38z"/>
<g>
	<path class="st38" d="M515.4,38.3c23.4-16.9,50.7-28.2,79.1-32.8c5.8-0.9,11.8-1.6,17.5-0.1c10.6,2.7,18,12.1,24.5,20.9
		c5.5,7.4,11.3,15.4,11.6,24.7c0.4,12.2-8.9,23.1-9.3,35.3c-0.3,11.2,8,21.9,18.9,24.5c-10.5,6.9-26.1,4.3-33.7-5.6
		c-4.2-5.4-6-12.3-10.3-17.6c-4.8-6-12-9.4-19-12.6C568.3,62.6,541.8,50.5,515.4,38.3z"/>
	<path class="st39" d="M647,104.8c-3.3-3.1-5.7-7-7-11.3c-4,1.4-7.7,3.6-10.9,6.4c-5.5-5.1-5.1-15.2,0.8-19.8
		c-3.3,1.6-6.5,3.2-9.8,4.8c5.7-21.7,3.7-45.4-5.6-65.8c0,10.8,0,21.5-0.1,32.3c0,2.3-0.1,4.9-1.9,6.3c-2.2,1.8-5.7,0.7-7.5-1.4
		c-1.9-2.1-2.7-4.9-4.1-7.4c-4.3-8.2-13.6-12.6-22.6-14.6c-9.1-2-18.5-2-27.4-4.3c-4.5-1.2-9-3-12.7-5.7
		c-7.9,4.1-15.6,8.8-22.8,14.1c26.5,12.2,53,24.3,79.5,36.5c7,3.2,14.2,6.6,19,12.6c4.2,5.3,6.1,12.2,10.3,17.6
		c5.4,7,14.8,10.3,23.5,9.3C647.7,111.2,647.5,108,647,104.8z"/>
	<path class="st40" d="M635.9,107.7c-0.3,3.1,0.4,6.2,2,8.8c2,3.4,5.3,5.9,9.1,6.8c7.7,1.9,16.5-3.6,18.1-11.5
		c1.5-7.8-4.5-16.3-12.4-17.5C644.8,93.3,636.6,99.8,635.9,107.7z"/>
	<path class="st10" d="M644.8,97.9c-2.6,1.7-3.9,5-3.8,8c0.1,5.2,4,10.1,9.1,11.3c4.9,1.2,10.8-1.5,12.1-6.4
		c1.2-4.5-1.5-9.3-5.3-11.9C653.4,96.5,648.4,95.5,644.8,97.9z"/>
	<path class="st41" d="M622,12.6c9.6,6.4,14.5,17.6,18.9,28.2c-8.7-12.4-18.7-25.7-33.5-29.3c-11.7-2.8-23.9,1.2-36,1
		c8.4-2.5,16.8-5,25.5-5.7C605.6,6.3,614.7,7.7,622,12.6z"/>
	<path class="st42" d="M572.6,90c-0.3-0.1-0.5-0.2-0.8-0.3C572,89.7,572.3,89.8,572.6,90z"/>
	<path class="st42" d="M566.9,87.4c0.9,0.4,1.7,0.8,2.6,1.2c-0.7-0.3-1.4-0.7-2.1-1L566.9,87.4z"/>
	<path class="st42" d="M614.7,84.7c-22.1-25.9-54.8-45.2-87.9-54.8c-7.1-2.1-14.7,0.8-18.6,7.1c-3.5,5.6-5.4,11.5-5.6,18.9
		c3.5-1.7,10.2-3.6,18.4,0.1c11.1,5,26.8,21.9,46.3,31.7l6.1,2.7c2.7,1.1,5.4,2,8,2.7c12.4,3.3,19.4,16.2,19.7,19.7
		c8.3-7.8,12.6-15.8,14.6-20.6C616.9,89.7,616.5,86.8,614.7,84.7z"/>
	<path class="st42" d="M571.8,89.6c-0.8-0.3-1.5-0.7-2.3-1C570.2,89,571,89.3,571.8,89.6z"/>
	<path class="st42" d="M573.6,90.4L573.6,90.4c-0.4-0.2-0.7-0.4-1-0.5C572.9,90.1,573.3,90.2,573.6,90.4z"/>
	<path class="st42" d="M569.5,88.6c0.8,0.4,1.5,0.7,2.3,1c0.3,0.1,0.5,0.2,0.8,0.3c0.3,0.1,0.6,0.3,0.9,0.4l-6.1-2.7
		C568.1,87.9,568.8,88.3,569.5,88.6z"/>
	<path class="st40" d="M521.1,55.9c-8.2-3.7-14.9-1.8-18.4-0.1c0,0.5,0,1.1,0,1.6c0,0.1,0,0.1,0,0.2c0,0,19.8,0.6,36.1,12.3
		c10.2,7.3,19.5,13.3,28.1,17.5l0.5,0.2C547.8,77.9,532.1,61,521.1,55.9z"/>
	<path class="st40" d="M566.9,87.4c0,0,16,6,27,3.7c11-2.4,8,23.5,8,23.5S598.3,98,566.9,87.4z"/>
	<path class="st43" d="M520.2,32.5c0,0,15.6-1.6,41.1,16.2C561.3,48.8,536.5,35.8,520.2,32.5z"/>
</g>
</svg>
